<svg width="124" height="33" xmlns="http://www.w3.org/2000/svg" xmlns:xlink="http://www.w3.org/1999/xlink" xml:space="preserve" overflow="hidden"><defs><clipPath id="clip0"><rect x="620" y="55" width="124" height="33"/></clipPath></defs><g clip-path="url(#clip0)" transform="translate(-620 -55)"><path d="M10.0308 18.4224 10.0308 11.6701C9.99182 10.7724 9.67957 10.226 9.05508 9.7186 8.43059 9.21121 7.84514 8.97702 6.98646 8.93799L6.63519 8.93799C5.73749 8.97702 5.113 9.25024 4.48851 9.83569 3.86402 10.4212 3.55178 11.0066 3.51275 11.8653L3.51275 18.1102C3.55178 18.9688 3.86402 19.5543 4.48851 20.1398 5.113 20.7252 5.69846 21.0375 6.63519 21.0375L6.98646 21.0375C7.88417 21.0375 8.46963 20.7642 9.05508 20.2568 9.67957 19.7885 10.0308 19.2421 10.0308 18.4224M9.64054 23.3012C9.52345 23.3793 9.40636 23.4573 9.3283 23.5354L9.28927 23.5744C9.25024 23.5744 9.25024 23.6135 9.21121 23.6135 9.17217 23.6135 9.17217 23.6525 9.13314 23.6525 9.09411 23.6525 9.09411 23.6915 9.05508 23.6915 9.01605 23.6915 9.01605 23.7306 8.97702 23.7306 8.93799 23.7306 8.93799 23.7696 8.89896 23.7696 8.85993 23.7696 8.85993 23.8086 8.8209 23.8086 8.78187 23.8086 8.78187 23.8477 8.74284 23.8477 8.70381 23.8477 8.70381 23.8867 8.66478 23.8867 8.62575 23.8867 8.58672 23.9257 8.58672 23.9257 8.54769 23.9257 8.50866 23.9647 8.50866 23.9647 8.50866 23.9647 8.43059 24.0038 8.43059 24.0038 8.39156 24.0038 8.35253 24.0428 8.35253 24.0428 8.3135 24.0428 8.27447 24.0818 8.27447 24.0818 8.23544 24.0818 8.19641 24.1209 8.19641 24.1209 8.15738 24.1209 8.11835 24.1209 8.11835 24.1599 8.07932 24.1599 8.04029 24.1599 8.04029 24.1989 8.00126 24.1989 7.96223 24.1989 7.96223 24.238 7.9232 24.238 7.9232 24.238 7.88417 24.238 7.84514 24.238 7.84514 24.238 7.80611 24.238 7.45483 24.316 7.10356 24.316 6.71325 24.316L6.44004 24.316C4.64463 24.277 3.16147 23.6915 1.95153 22.5596 0.663519 21.5058 0.0390305 20.0617 0 18.3834L0 11.6701C0.0390305 9.95279 0.663519 8.54769 1.87347 7.4158 3.08341 6.28392 4.56657 5.69846 6.36198 5.65943L6.71325 5.65943C7.06453 5.65943 7.37677 5.69846 7.64998 5.73749L7.72804 5.73749C7.76708 5.73749 7.80611 5.73749 7.80611 5.73749 7.84514 5.73749 7.88417 5.73749 7.88417 5.73749 7.9232 5.73749 7.96223 5.73749 7.96223 5.77652 8.00126 5.77652 8.04029 5.77652 8.04029 5.81555 8.07932 5.81555 8.11835 5.81555 8.11835 5.85458 8.15738 5.85458 8.19641 5.89361 8.19641 5.89361 8.23544 5.89361 8.27447 5.93264 8.27447 5.93264 8.3135 5.93264 8.35253 5.97167 8.35253 5.97167 8.39156 5.97167 8.43059 6.0107 8.43059 6.0107 8.46963 6.0107 8.50866 6.04973 8.50866 6.04973 8.54769 6.04973 8.54769 6.08876 8.58672 6.08876 8.62575 6.08876 8.62575 6.12779 8.66478 6.12779 8.70381 6.12779 8.70381 6.16682 8.74284 6.16682 8.78187 6.16682 8.78187 6.20585 8.8209 6.20585L8.85993 6.20585 8.89896 6.24488 8.93799 6.28392 8.97702 6.32295 9.01605 6.36198 9.05508 6.40101 9.09411 6.44004 9.13314 6.47907 9.17217 6.5181 9.21121 6.55713 9.25024 6.59616 9.28927 6.63519 9.3283 6.67422 9.36733 6.71325 9.40636 6.75228 9.44539 6.79131 9.48442 6.83034 9.52345 6.86937C9.52345 6.86937 9.56248 6.9084 9.56248 6.9084 9.56248 6.9084 9.60151 6.9084 9.60151 6.94743 9.64054 6.94743 9.64054 6.94743 9.67957 6.94743 9.7186 6.94743 9.7186 6.94743 9.75763 6.94743 9.79666 6.94743 9.79666 6.94743 9.83569 6.94743 9.87472 6.94743 9.87472 6.94743 9.91375 6.94743 9.91375 6.94743 9.95279 6.94743 9.95279 6.9084 9.95279 6.9084 9.99182 6.86937 9.99182 6.86937 9.99182 6.86937 10.0308 6.83034 10.0308 6.83034 10.0308 6.83034 10.0699 6.79131 10.0699 6.79131 10.0699 6.75228 10.0699 6.75228 10.0699 6.71325 10.0699 6.67422 10.0699 6.67422 10.0699 6.63519 10.0699 6.40101 10.0699 6.12779 10.3041 6.04973 10.4602 6.0107 10.6163 6.0107 10.7724 6.0107L12.2556 6.0107 13.0362 6.0107C13.2704 6.0107 13.6217 5.97167 13.6997 6.24488 13.7778 6.44004 13.7387 6.9084 13.7387 7.10356L13.7387 10.226 13.7387 17.5637 13.7387 21.4278C13.7387 22.7158 13.7778 24.0038 13.6607 25.2528 13.2704 28.7655 11.514 31.7709 7.76708 32.4344 5.5033 32.8247 3.23953 32.0441 1.52219 30.5999 1.32704 30.4048 0.858672 30.1316 0.897702 29.8193 0.897702 29.7022 0.975763 29.6242 1.01479 29.5461 1.01479 29.5461 2.45892 28.0239 2.57601 27.8678 2.69311 27.7507 2.8102 27.5946 2.96632 27.5946 3.2005 27.5946 3.43469 27.8288 3.86402 28.063 4.56657 28.4923 5.30815 28.8436 6.12779 28.9607 6.63519 29.0387 7.18162 28.9607 7.68901 28.8045 9.60151 28.18 10.1089 25.7992 10.226 23.9257L10.226 23.8867C10.226 23.8867 10.226 23.8477 10.226 23.8477 10.226 23.8477 10.226 23.8086 10.226 23.8086 10.226 23.8086 10.226 23.7696 10.226 23.7696 10.226 23.7696 10.226 23.7306 10.226 23.7306 10.226 23.7306 10.226 23.6915 10.226 23.6915 10.226 23.6915 10.226 23.6915 10.226 23.6525 10.226 23.6525 10.226 23.6525 10.226 23.6135 10.226 23.6135 10.226 23.6135 10.187 23.5744 10.187 23.5744 10.187 23.5744 10.1479 23.5354 10.1479 23.5354 10.1479 23.5354 10.1089 23.5354 10.1089 23.5354 10.1089 23.5354 10.0699 23.5354 10.0699 23.5354 10.0699 23.5354 10.0308 23.5354 10.0308 23.5354 9.99182 23.5354 9.99182 23.5354 9.99182 23.5354 9.95279 23.5354 9.95279 23.5354 9.95279 23.5354 9.91375 23.5354 9.91375 23.5354 9.91375 23.5354 9.87472 23.5354 9.87472 23.5354 9.87472 23.5354 9.83569 23.5354 9.83569 23.5354 9.83569 23.5354 9.79666 23.5354 9.79666 23.5354 9.79666 23.5354 9.75763 23.5354 9.75763 23.5354 9.75763 23.5354 9.7186 23.5354 9.7186 23.5354 9.67957 23.3012 9.64054 23.3012 9.64054 23.3012" fill="#D40F14" transform="matrix(1 0 0 1.01963 620 55.064)"/><path d="M39.3037 23.9647 39.3037 21.5058C39.3037 21.3497 39.2647 21.2716 39.1867 21.1936 39.1086 21.1155 39.0305 21.0765 38.8744 21.0765L32.1221 21.0765C31.966 21.0765 31.8489 21.0375 31.7709 20.9984 31.6928 20.9594 31.6538 20.8813 31.6538 20.7642 31.6538 20.6862 31.6928 20.5301 31.7318 20.452L39.1867 6.40101C39.2257 6.36198 39.2257 6.32295 39.2257 6.24488 39.2257 6.20585 39.2647 6.12779 39.2647 6.08876 39.2647 5.89361 39.1086 5.77652 38.7963 5.77652L26.6188 5.77652C26.3456 5.77652 26.1895 5.89361 26.1895 6.20585L26.1895 8.66478C26.1895 8.93799 26.3066 9.09411 26.6188 9.09411L32.9808 9.09411C33.1369 9.09411 33.254 9.13314 33.3321 9.17217 33.4101 9.21121 33.4492 9.3283 33.4492 9.40636 33.4492 9.44539 33.4492 9.48442 33.4101 9.56248 33.4101 9.60151 33.3711 9.67957 33.3711 9.7186L25.8382 23.7696C25.7992 23.8086 25.7992 23.8477 25.7992 23.9257 25.7992 23.9647 25.7602 24.0428 25.7602 24.0818 25.7602 24.277 25.9163 24.3941 26.2285 24.3941L38.9134 24.3941C39.0696 24.3941 39.1476 24.3551 39.2257 24.316 39.2647 24.1989 39.3037 24.0818 39.3037 23.9647" fill="#D40F14" transform="matrix(1 0 0 1.01963 620 55.064)"/><path d="M18.2273 3.43469C18.2273 3.55178 18.2663 3.66887 18.3443 3.74693 18.4224 3.82499 18.5395 3.86402 18.7347 3.86402L21.3107 3.86402C21.4668 3.86402 21.6229 3.82499 21.701 3.74693 21.779 3.66887 21.8181 3.59081 21.8181 3.43469 21.8181 3.43469 21.8181 3.35663 21.8181 3.35663L21.8181 0.507397C21.8181 0.351275 21.779 0.195153 21.701 0.117092 21.5839 0.0390305 21.4668 0 21.2716 0L21.0765 0C20.9204 0 20.7642 0.0390305 20.6472 0.195153L18.5005 2.61505 18.3834 2.73214C18.2663 2.84923 18.2273 2.96632 18.2273 3.12244L18.2273 3.35663C18.2273 3.39566 18.2273 3.43469 18.2273 3.43469" fill="#D40F14" transform="matrix(1 0 0 1.01963 620 55.064)"/><path d="M21.779 6.24488C21.779 6.08876 21.74 5.97167 21.6619 5.93264 21.5839 5.85458 21.4668 5.81555 21.3107 5.81555L18.6566 5.81555C18.5005 5.81555 18.3834 5.85458 18.3053 5.93264 18.2273 6.0107 18.1882 6.12779 18.1882 6.24488L18.1882 6.32295 18.1882 16.3538 18.1882 23.9257C18.1882 24.0818 18.2273 24.1989 18.3053 24.238 18.3834 24.316 18.5005 24.3551 18.6566 24.3551L21.3107 24.3551C21.4668 24.3551 21.5839 24.316 21.6619 24.238 21.74 24.1599 21.779 24.0428 21.779 23.9257L21.779 6.24488Z" fill="#D40F14" transform="matrix(1 0 0 1.01963 620 55.064)"/><path d="M48.593 24.0428C48.554 24.0038 48.4759 23.9647 48.3979 23.9647L46.7586 23.9647 48.593 20.413C48.632 20.3739 48.632 20.2959 48.632 20.2568 48.632 20.1788 48.593 20.1007 48.554 20.0617 48.5149 20.0227 48.4369 19.9836 48.3198 19.9836L46.4463 19.9836C46.3683 19.9836 46.2902 20.0227 46.2512 20.0617 46.2122 20.1007 46.1731 20.1788 46.1731 20.2178 46.1731 20.2959 46.2122 20.3349 46.2512 20.3739 46.2902 20.413 46.3683 20.452 46.4463 20.452L48.0076 20.452 46.1731 24.0038C46.1341 24.0428 46.1341 24.1209 46.1341 24.1599 46.1341 24.238 46.1731 24.316 46.2122 24.3941 46.2512 24.4721 46.3292 24.4721 46.4073 24.4721L48.3588 24.4721C48.4369 24.4721 48.5149 24.4331 48.554 24.3941 48.593 24.3551 48.632 24.277 48.632 24.238 48.6711 24.1599 48.632 24.0818 48.593 24.0428M51.7935 21.5449C51.7935 21.4668 51.7545 21.3887 51.7155 21.3497 51.6764 21.3107 51.5984 21.2716 51.5593 21.2716 51.4813 21.2716 51.4422 21.3107 51.4032 21.3497 51.3642 21.3887 51.3251 21.4668 51.3251 21.5449L51.3251 23.4573C51.3251 23.6135 51.2861 23.7306 51.169 23.8477 51.0519 23.9647 50.9348 24.0038 50.7787 24.0038L50.7007 24.0038C50.5445 24.0038 50.4274 23.9647 50.3104 23.8477 50.1933 23.7306 50.1542 23.6135 50.1542 23.4573L50.1542 21.5449C50.1542 21.4668 50.1152 21.3887 50.0762 21.3497 50.0371 21.3107 49.9591 21.2716 49.9201 21.2716 49.842 21.2716 49.803 21.3107 49.7639 21.3497 49.7249 21.3887 49.6859 21.4668 49.6859 21.5449L49.6859 23.4573C49.6859 23.6525 49.7249 23.8086 49.7639 23.9257 49.803 24.0428 49.881 24.1599 49.9981 24.238 50.0762 24.316 50.1933 24.3941 50.3494 24.4331 50.5055 24.4721 50.6226 24.5112 50.7397 24.5112L50.8177 24.5112C50.9348 24.5112 51.0519 24.5112 51.13 24.4721 51.2471 24.4331 51.3251 24.3941 51.3642 24.316 51.3642 24.3941 51.4032 24.4331 51.4422 24.4721 51.4813 24.5112 51.5593 24.5112 51.5984 24.5112 51.6764 24.5112 51.7155 24.4721 51.7545 24.4331 51.7935 24.3941 51.8325 24.316 51.8325 24.238L51.8325 21.5449ZM55.1111 23.5744C55.1111 23.3793 55.0721 23.1841 54.994 23.067 54.916 22.95 54.7989 22.8329 54.6818 22.7938 54.5647 22.7158 54.4086 22.6767 54.2915 22.6377 54.1353 22.5987 54.0183 22.5596 53.9012 22.5596 53.7841 22.5206 53.667 22.4816 53.5889 22.4426 53.5109 22.4035 53.4718 22.2864 53.4718 22.2084L53.4718 22.1693C53.4718 22.0913 53.5109 21.9742 53.6279 21.9352 53.706 21.8571 53.8621 21.8181 54.0573 21.8181L54.0963 21.8181C54.2524 21.8181 54.3695 21.8571 54.4476 21.8961 54.5257 21.9352 54.6037 21.9742 54.6818 22.0132 54.7208 22.0522 54.7989 22.0522 54.8379 22.0522 54.916 22.0522 54.955 22.0132 54.994 21.9742 55.0331 21.9352 55.0721 21.8571 55.0721 21.8181 55.0721 21.74 55.0331 21.6619 54.994 21.6229 54.955 21.5839 54.916 21.5839 54.8769 21.5449 54.8379 21.5058 54.7598 21.4668 54.6818 21.4668 54.6037 21.4668 54.5257 21.4278 54.4476 21.3887 54.3695 21.3497 54.2524 21.3497 54.1353 21.3497L54.0963 21.3497C53.9792 21.3497 53.8621 21.3497 53.745 21.3887 53.6279 21.4278 53.5109 21.4668 53.3938 21.5449 53.2767 21.6229 53.1986 21.701 53.1206 21.8181 53.0425 21.9352 53.0035 22.0522 53.0035 22.2084 53.0035 22.4035 53.0425 22.5596 53.1206 22.6767 53.1986 22.7938 53.3157 22.8719 53.4328 22.95 53.5499 23.028 53.706 23.067 53.8231 23.067 53.9792 23.1061 54.0963 23.1451 54.2134 23.1841 54.3305 23.2232 54.4476 23.2622 54.5257 23.3403 54.6037 23.4183 54.6427 23.4964 54.6427 23.6525L54.6427 23.6525C54.6427 23.7696 54.5647 23.8477 54.4866 23.9647 54.3695 24.0428 54.2134 24.0818 54.0183 24.0818L53.9792 24.0818C53.8621 24.0818 53.745 24.0428 53.6279 23.9647 53.5109 23.8867 53.3938 23.7696 53.3157 23.6915 53.2767 23.6525 53.2376 23.6135 53.1986 23.6135 53.1596 23.6135 53.1206 23.5744 53.0815 23.5744 53.0035 23.5744 52.9644 23.6135 52.8864 23.6525 52.8473 23.6915 52.8083 23.7696 52.8083 23.8477 52.8083 23.8477 52.8083 23.9257 52.8473 23.9647 52.8864 24.0818 52.9644 24.1599 53.0425 24.238 53.1206 24.316 53.1986 24.3941 53.3157 24.4331 53.4328 24.4721 53.5109 24.5112 53.6279 24.5502 53.745 24.5892 53.8621 24.5892 53.9402 24.5892L53.9792 24.5892C54.0963 24.5892 54.2524 24.5502 54.3695 24.5112 54.4866 24.4721 54.6427 24.4331 54.7208 24.3551 54.8379 24.277 54.916 24.1989 54.994 24.0818 55.0721 23.8867 55.1111 23.7306 55.1111 23.5744L55.1111 23.5744ZM58.5458 24.0818C58.5068 24.0428 58.4677 24.0038 58.3897 24.0038 58.2726 23.9647 58.2336 23.9257 58.2336 23.7696L58.2336 22.2474C58.2336 22.0913 58.1945 21.9742 58.1555 21.8571 58.1165 21.74 58.0384 21.6229 57.9213 21.5449 57.8432 21.4668 57.7262 21.3887 57.6091 21.3107 57.492 21.2716 57.3358 21.2326 57.2188 21.2326L57.1797 21.2326C57.1017 21.2326 57.0236 21.2326 56.9065 21.2716 56.8285 21.3107 56.7114 21.3107 56.6333 21.3497 56.5552 21.3887 56.4772 21.4668 56.3991 21.5449 56.3211 21.6229 56.243 21.74 56.204 21.8571 56.204 21.8961 56.1649 21.9352 56.1649 21.9742 56.1649 22.0522 56.204 22.0913 56.243 22.1303 56.282 22.1693 56.3601 22.2084 56.3991 22.2084 56.4381 22.2084 56.4772 22.2084 56.5162 22.1693 56.5552 22.1303 56.5943 22.1303 56.5943 22.0522 56.6723 21.9352 56.7114 21.8571 56.7894 21.8181 56.8675 21.779 56.9846 21.74 57.1017 21.74L57.1407 21.74C57.2968 21.74 57.4139 21.779 57.492 21.8571 57.6091 21.9352 57.6481 22.0913 57.6481 22.2864 57.6481 22.2864 57.6481 22.3255 57.6481 22.3255 57.6481 22.3645 57.6481 22.3645 57.6481 22.3645 57.6091 22.4035 57.57 22.4426 57.4529 22.4426 57.3749 22.4816 57.2578 22.4816 57.1407 22.5206 57.0236 22.5596 56.9065 22.5596 56.7504 22.5987 56.6333 22.6377 56.4772 22.6767 56.3991 22.7548 56.282 22.8329 56.204 22.9109 56.1259 23.028 56.0478 23.1451 56.0088 23.2622 56.0088 23.4573L56.0088 23.5354C56.0088 23.6915 56.0478 23.8086 56.0869 23.9257 56.1649 24.0428 56.243 24.1599 56.3211 24.238 56.3991 24.316 56.5162 24.3551 56.6723 24.4331 56.7894 24.4721 56.9455 24.5112 57.0626 24.5112L57.1407 24.5112C57.4139 24.5112 57.6481 24.4331 57.8432 24.238 57.8823 24.316 57.9603 24.3551 57.9994 24.3941 58.0774 24.4331 58.1555 24.4721 58.2726 24.4721 58.2726 24.4721 58.3116 24.4721 58.3116 24.4721 58.3897 24.4721 58.4677 24.4331 58.5068 24.3941 58.5458 24.3551 58.5848 24.277 58.5848 24.238 58.5848 24.1989 58.5848 24.1599 58.5458 24.0818M57.7262 23.4573C57.7262 23.6135 57.6871 23.7306 57.57 23.8477 57.4529 23.9647 57.3358 24.0038 57.1797 24.0038L57.1017 24.0038C56.9455 24.0038 56.7894 23.9647 56.7114 23.8867 56.5943 23.8086 56.5552 23.6915 56.5552 23.5354L56.5552 23.4964C56.5552 23.3793 56.5943 23.3012 56.6723 23.2232 56.7504 23.1451 56.8285 23.1061 56.9455 23.067 57.0626 23.028 57.1797 22.989 57.3358 22.989 57.492 22.95 57.6091 22.95 57.7262 22.9109L57.7262 23.4573ZM63.4246 22.3255C63.4246 22.1303 63.3856 21.9742 63.3466 21.8571 63.3075 21.74 63.2295 21.6229 63.1124 21.5449 63.0343 21.4668 62.9172 21.3887 62.7611 21.3497 62.644 21.3107 62.4879 21.2716 62.3708 21.2716L62.2927 21.2716C62.1366 21.2716 61.9805 21.3107 61.8244 21.3887 61.7073 21.4668 61.5511 21.5449 61.4731 21.6619 61.356 21.5449 61.2389 21.4668 61.1218 21.3887 60.9657 21.3107 60.8486 21.2716 60.6534 21.2716L60.6144 21.2716C60.4973 21.2716 60.3802 21.2716 60.3022 21.3107 60.1851 21.3497 60.107 21.3887 60.068 21.4668 60.068 21.3887 60.029 21.3497 59.9899 21.3107 59.9509 21.2716 59.9119 21.2716 59.8338 21.2716 59.7557 21.2716 59.7167 21.3107 59.6387 21.3497 59.5996 21.3887 59.5606 21.4668 59.5606 21.5449L59.5606 24.277C59.5606 24.3551 59.5996 24.4331 59.6387 24.4721 59.6777 24.5112 59.7557 24.5502 59.7948 24.5502 59.8728 24.5502 59.9119 24.5112 59.9509 24.4721 59.9899 24.4331 60.029 24.3551 60.029 24.277L60.029 22.2864C60.029 22.1303 60.068 22.0132 60.1851 21.9352 60.3022 21.8571 60.4193 21.8181 60.5754 21.8181L60.6144 21.8181C60.7705 21.8181 60.8876 21.8571 61.0047 21.9742 61.1218 22.0913 61.1608 22.2084 61.1608 22.3645L61.1608 24.277C61.1608 24.3551 61.1999 24.4331 61.2389 24.4721 61.2779 24.5112 61.356 24.5502 61.395 24.5502 61.4731 24.5502 61.5121 24.5112 61.5511 24.4721 61.5902 24.4331 61.6292 24.3551 61.6292 24.277L61.6292 22.3645C61.6292 22.2084 61.6682 22.0522 61.7853 21.9742 61.9024 21.8571 62.0195 21.8181 62.1756 21.8181L62.2537 21.8181C62.4098 21.8181 62.5659 21.8571 62.644 21.9352 62.7611 22.0132 62.8001 22.1693 62.8001 22.3255L62.8001 24.238C62.8001 24.316 62.8392 24.3941 62.8782 24.4331 62.9172 24.4721 62.9953 24.5112 63.0343 24.5112 63.1124 24.5112 63.1514 24.4721 63.1904 24.4331 63.2295 24.3941 63.2685 24.316 63.2685 24.238L63.2685 22.3255ZM68.4205 22.3255C68.4205 22.1303 68.3815 21.9742 68.3425 21.8571 68.3034 21.74 68.2254 21.6229 68.1083 21.5449 68.0302 21.4668 67.9131 21.3887 67.757 21.3497 67.6399 21.3107 67.4838 21.2716 67.3667 21.2716L67.2886 21.2716C67.1325 21.2716 66.9764 21.3107 66.8203 21.3887 66.7032 21.4668 66.5471 21.5449 66.469 21.6619 66.3519 21.5449 66.2348 21.4668 66.1177 21.3887 65.9616 21.3107 65.8445 21.2716 65.6494 21.2716L65.5713 21.2716C65.4542 21.2716 65.3371 21.2716 65.259 21.3107 65.142 21.3497 65.0639 21.3887 65.0249 21.4668 65.0249 21.3887 64.9858 21.3497 64.9468 21.3107 64.9078 21.2716 64.8687 21.2716 64.7907 21.2716 64.7126 21.2716 64.6736 21.3107 64.5955 21.3497 64.5565 21.3887 64.5175 21.4668 64.5175 21.5449L64.5175 24.277C64.5175 24.3551 64.5565 24.4331 64.5955 24.4721 64.6346 24.5112 64.7126 24.5502 64.7516 24.5502 64.8297 24.5502 64.8687 24.5112 64.9078 24.4721 64.9468 24.4331 64.9858 24.3551 64.9858 24.277L64.9858 22.2864C64.9858 22.1303 65.0249 22.0132 65.142 21.9352 65.259 21.8571 65.3761 21.8181 65.5323 21.8181L65.6103 21.8181C65.7664 21.8181 65.8835 21.8571 66.0006 21.9742 66.1177 22.0913 66.1568 22.2084 66.1568 22.3645L66.1568 24.277C66.1568 24.3551 66.1958 24.4331 66.2348 24.4721 66.2738 24.5112 66.3519 24.5502 66.3909 24.5502 66.469 24.5502 66.508 24.5112 66.5471 24.4721 66.5861 24.4331 66.6251 24.3551 66.6251 24.277L66.6251 22.3645C66.6251 22.2084 66.6641 22.0522 66.7812 21.9742 66.8983 21.8571 67.0154 21.8181 67.1715 21.8181L67.2496 21.8181C67.4057 21.8181 67.5619 21.8571 67.6399 21.9352 67.718 22.0132 67.796 22.1693 67.796 22.3255L67.796 24.238C67.796 24.316 67.8351 24.3941 67.8741 24.4331 67.9131 24.4721 67.9912 24.5112 68.0302 24.5112 68.1083 24.5112 68.1473 24.4721 68.1863 24.4331 68.2254 24.3941 68.2644 24.316 68.2644 24.238L68.2644 22.3255ZM71.6601 22.3255C71.6601 22.1693 71.621 22.0522 71.582 21.8961 71.543 21.779 71.4649 21.6619 71.3478 21.5449 71.2698 21.4668 71.1527 21.3887 70.9965 21.3107 70.8794 21.2716 70.7233 21.2326 70.6062 21.2326L70.5282 21.2326C70.372 21.2326 70.255 21.2716 70.1379 21.3107 70.0208 21.3497 69.9037 21.4278 69.7866 21.5449 69.7085 21.6229 69.6305 21.74 69.5524 21.8961 69.4743 22.0522 69.4743 22.1693 69.4743 22.2864L69.4743 23.4183C69.4743 23.5744 69.5134 23.6915 69.5524 23.8477 69.5914 23.9647 69.6695 24.0818 69.7866 24.1599 69.8646 24.238 69.9817 24.316 70.1379 24.3941 70.255 24.4331 70.4111 24.4721 70.5282 24.4721L70.6062 24.4721C70.8404 24.4721 71.0356 24.4331 71.1917 24.316 71.3478 24.1989 71.4649 24.0428 71.543 23.8867 71.543 23.8477 71.582 23.8086 71.582 23.7696 71.582 23.6915 71.543 23.6525 71.5039 23.5744 71.4649 23.5354 71.3868 23.4964 71.3478 23.4964 71.3088 23.4964 71.2698 23.4964 71.2307 23.5354 71.1917 23.5744 71.1527 23.6135 71.1527 23.6525 71.1136 23.7306 71.0356 23.8086 70.9575 23.8867 70.8794 23.9647 70.7624 23.9647 70.6453 23.9647L70.5672 23.9647C70.4111 23.9647 70.294 23.9257 70.1769 23.8086 70.0598 23.6915 70.0208 23.5744 70.0208 23.4183L70.0208 23.1061 71.4259 23.1061C71.5039 23.1061 71.543 23.067 71.621 23.028 71.6601 22.989 71.6991 22.9109 71.6991 22.8719L71.6991 22.3255ZM71.1527 22.6767 69.9817 22.6767 69.9817 22.3645C69.9817 22.2084 70.0208 22.0913 70.1379 21.9742 70.255 21.8571 70.372 21.8181 70.5282 21.8181L70.6062 21.8181C70.7624 21.8181 70.8794 21.8571 70.9965 21.9742 71.1136 22.0913 71.1527 22.2084 71.1527 22.3645L71.1527 22.6767ZM74.8996 22.3255C74.8996 22.1303 74.8606 21.9742 74.8215 21.8571 74.7825 21.74 74.7044 21.6229 74.5873 21.5449 74.5093 21.4668 74.3922 21.3887 74.2361 21.3497 74.119 21.3107 73.9629 21.2716 73.8458 21.2716L73.7677 21.2716C73.6506 21.2716 73.5335 21.2716 73.4555 21.3107 73.3384 21.3497 73.2603 21.3887 73.2213 21.4668 73.2213 21.3887 73.1822 21.3497 73.1432 21.3107 73.1042 21.2716 73.0261 21.2716 72.9871 21.2716 72.909 21.2716 72.87 21.3107 72.7919 21.3497 72.7529 21.3887 72.7139 21.4668 72.7139 21.5449L72.7139 24.277C72.7139 24.3551 72.7529 24.4331 72.7919 24.4721 72.831 24.5112 72.909 24.5502 72.9481 24.5502 73.0261 24.5502 73.0652 24.5112 73.1042 24.4721 73.1432 24.4331 73.1822 24.3551 73.1822 24.277L73.1822 22.3645C73.1822 22.2084 73.2213 22.0913 73.3384 21.9742 73.4555 21.8571 73.5725 21.8181 73.7287 21.8181L73.7677 21.8181C73.9238 21.8181 74.0409 21.8571 74.158 21.9742 74.2751 22.0913 74.3141 22.2084 74.3141 22.3645L74.3141 24.277C74.3141 24.3551 74.3532 24.4331 74.3922 24.4721 74.4312 24.5112 74.5093 24.5502 74.5483 24.5502 74.6264 24.5502 74.6654 24.5112 74.7044 24.4721 74.7435 24.4331 74.7825 24.3551 74.7825 24.277L74.7825 22.3255ZM78.4123 24.0818C78.3733 24.0428 78.3343 24.0038 78.2562 24.0038 78.1391 23.9647 78.1001 23.9257 78.1001 23.7696L78.1001 22.2474C78.1001 22.0913 78.0611 21.9742 78.022 21.8571 77.983 21.74 77.9049 21.6229 77.7878 21.5449 77.7098 21.4668 77.5927 21.3887 77.4756 21.3107 77.3585 21.2716 77.2024 21.2326 77.0853 21.2326L77.0463 21.2326C76.9682 21.2326 76.8511 21.2326 76.7731 21.2716 76.695 21.3107 76.5779 21.3107 76.4998 21.3497 76.4218 21.3887 76.3437 21.4668 76.2657 21.5449 76.1876 21.6229 76.1095 21.74 76.0705 21.8571 76.0705 21.8961 76.0315 21.9352 76.0315 21.9742 76.0315 22.0522 76.0705 22.0913 76.1095 22.1303 76.1486 22.1693 76.2266 22.2084 76.2657 22.2084 76.3047 22.2084 76.3437 22.2084 76.3828 22.1693 76.4218 22.1303 76.4608 22.1303 76.4608 22.0522 76.5389 21.9352 76.5779 21.8571 76.656 21.8181 76.734 21.779 76.8511 21.74 76.9682 21.74L77.0072 21.74C77.1634 21.74 77.2804 21.779 77.3585 21.8571 77.4756 21.9352 77.5146 22.0913 77.5146 22.2864 77.5146 22.2864 77.5146 22.3255 77.5146 22.3255 77.5146 22.3645 77.5146 22.3645 77.5146 22.3645 77.4756 22.4035 77.4366 22.4426 77.3195 22.4426 77.2414 22.4816 77.1243 22.4816 77.0072 22.5206 76.8901 22.5596 76.7731 22.5596 76.6169 22.5987 76.4998 22.6377 76.3437 22.6767 76.2657 22.7548 76.1876 22.8329 76.0705 22.9109 75.9924 23.028 75.9144 23.1451 75.8754 23.2622 75.8754 23.4573L75.8754 23.5354C75.8754 23.6915 75.9144 23.8086 75.9534 23.9257 76.0315 24.0428 76.1095 24.1599 76.1876 24.238 76.2657 24.316 76.3828 24.3551 76.5389 24.4331 76.656 24.4721 76.7731 24.5112 76.9292 24.5112L77.0072 24.5112C77.2804 24.5112 77.5146 24.4331 77.7098 24.238 77.7488 24.316 77.8269 24.3551 77.8659 24.3941 77.944 24.4331 78.022 24.4721 78.1391 24.4721 78.1391 24.4721 78.1782 24.4721 78.1782 24.4721 78.2562 24.4721 78.3343 24.4331 78.3733 24.3941 78.4123 24.3551 78.4514 24.277 78.4514 24.238 78.4514 24.1989 78.4514 24.1599 78.4123 24.0818M77.5927 23.4573C77.5927 23.6135 77.5537 23.7306 77.4366 23.8477 77.3195 23.9647 77.2024 24.0038 77.0463 24.0038L76.9682 24.0038C76.8121 24.0038 76.656 23.9647 76.5779 23.8867 76.4608 23.8086 76.4218 23.6915 76.4218 23.5354L76.4218 23.4964C76.4218 23.3793 76.4608 23.3012 76.5389 23.2232 76.6169 23.1451 76.695 23.1061 76.8121 23.067 76.9292 23.028 77.0463 22.989 77.2024 22.989 77.3585 22.95 77.4756 22.95 77.5927 22.9109L77.5927 23.4573ZM81.0664 21.6229C80.9883 21.5058 80.8713 21.4278 80.7542 21.3887 80.6371 21.3497 80.52 21.3107 80.3639 21.3107 80.2858 21.3107 80.2077 21.3107 80.1297 21.3497 80.0906 21.3497 80.0126 21.3887 79.9736 21.3887 79.9345 21.3887 79.8955 21.4278 79.8565 21.4668 79.8174 21.4278 79.8174 21.3887 79.7784 21.3497 79.7394 21.3107 79.7003 21.3107 79.6613 21.3107 79.5833 21.3107 79.5442 21.3497 79.5052 21.3887 79.4662 21.4278 79.4271 21.5058 79.4271 21.5839L79.4271 24.277C79.4271 24.3551 79.4662 24.4331 79.5052 24.4721 79.5442 24.5112 79.6223 24.5502 79.6613 24.5502 79.7003 24.5502 79.7784 24.5112 79.8174 24.4721 79.8565 24.4331 79.8955 24.3551 79.8955 24.277L79.8955 22.2474C79.8955 22.2084 79.8955 22.1303 79.8955 22.0913 79.8955 22.0522 79.9345 21.9742 79.9736 21.9352 80.0126 21.8961 80.0516 21.8571 80.0906 21.8181 80.1297 21.779 80.2077 21.779 80.3248 21.779 80.4029 21.779 80.481 21.779 80.52 21.8181 80.559 21.8571 80.598 21.8961 80.6371 21.8961 80.7151 21.9742 80.7542 21.9742 80.8322 21.9742 80.9103 21.9742 80.9493 21.9352 80.9883 21.8961 81.0274 21.8571 81.0664 21.779 81.0664 21.74 81.1054 21.74 81.1054 21.6619 81.0664 21.6229M84.2669 22.3255C84.2669 22.1693 84.2279 22.0522 84.1889 21.9352 84.1498 21.8181 84.0718 21.701 83.9547 21.5839 83.8766 21.5058 83.7595 21.4278 83.6034 21.3497 83.4863 21.3107 83.3302 21.2716 83.1741 21.2716L83.135 21.2716C83.0179 21.2716 82.9008 21.2716 82.8228 21.3107 82.7057 21.3497 82.6276 21.3887 82.5886 21.4668L82.5886 20.1398C82.5886 20.0617 82.5496 19.9836 82.5105 19.9446 82.4715 19.9056 82.3935 19.8665 82.3544 19.8665 82.2764 19.8665 82.2373 19.9056 82.1983 19.9446 82.1593 19.9836 82.1202 20.0617 82.1202 20.1398L82.1202 24.238C82.1202 24.316 82.1593 24.3551 82.1983 24.3941 82.2373 24.4331 82.3154 24.4331 82.3544 24.4331 82.3935 24.4331 82.4715 24.4331 82.5105 24.3941 82.5496 24.3551 82.5886 24.316 82.5886 24.238 82.6276 24.277 82.7057 24.316 82.7838 24.3551 82.8618 24.3941 82.9789 24.4331 83.135 24.4331L83.2131 24.4331C83.3692 24.4331 83.4863 24.3941 83.6034 24.3551 83.7205 24.316 83.8376 24.238 83.9547 24.1209 84.0327 24.0428 84.1108 23.9257 84.1889 23.8086 84.2279 23.6915 84.2669 23.5354 84.2669 23.3793L84.2669 22.3255ZM83.7595 23.4573C83.7595 23.6135 83.7205 23.7306 83.6034 23.8477 83.4863 23.9647 83.3692 24.0038 83.2131 24.0038L83.135 24.0038C82.9789 24.0038 82.8618 23.9647 82.7447 23.8867 82.6276 23.8086 82.5886 23.6525 82.5886 23.4964L82.5886 22.2864C82.5886 22.1303 82.6276 22.0132 82.7447 21.9352 82.8618 21.8571 82.9789 21.8181 83.135 21.8181L83.2131 21.8181C83.3692 21.8181 83.4863 21.8571 83.6034 21.9742 83.7205 22.0913 83.7595 22.2084 83.7595 22.3645L83.7595 23.4573ZM87.5064 22.3255C87.5064 22.1693 87.4674 22.0522 87.4284 21.8961 87.3894 21.779 87.3113 21.6619 87.1942 21.5449 87.1161 21.4668 86.9991 21.3887 86.8429 21.3107 86.7258 21.2716 86.5697 21.2326 86.4526 21.2326L86.3746 21.2326C86.2184 21.2326 86.1014 21.2716 85.9843 21.3107 85.8672 21.3497 85.7501 21.4278 85.633 21.5449 85.5549 21.6229 85.4769 21.74 85.3988 21.8961 85.3207 22.0522 85.3207 22.1693 85.3207 22.2864L85.3207 23.4183C85.3207 23.5744 85.3598 23.6915 85.3988 23.8477 85.4378 23.9647 85.5159 24.0818 85.633 24.1599 85.7111 24.238 85.8281 24.316 85.9843 24.3941 86.1014 24.4331 86.2575 24.4721 86.3746 24.4721L86.4526 24.4721C86.6868 24.4721 86.882 24.4331 87.0381 24.316 87.1942 24.1989 87.3113 24.0428 87.3894 23.8867 87.3894 23.8477 87.4284 23.8086 87.4284 23.7696 87.4284 23.6915 87.3894 23.6525 87.3503 23.5744 87.3113 23.5354 87.2332 23.4964 87.1552 23.4964 87.1161 23.4964 87.0771 23.4964 87.0381 23.5354 86.9991 23.5744 86.96 23.6135 86.96 23.6525 86.921 23.7306 86.8429 23.8086 86.7649 23.8867 86.6868 23.9647 86.5697 23.9647 86.4526 23.9647L86.3746 23.9647C86.2184 23.9647 86.1014 23.9257 85.9843 23.8086 85.8672 23.6915 85.8281 23.5744 85.8281 23.4183L85.8281 23.1061 87.2332 23.1061C87.3113 23.1061 87.3503 23.067 87.3894 23.028 87.4284 22.989 87.4674 22.9109 87.4674 22.8719L87.4674 22.3255ZM86.9991 22.6767 85.8281 22.6767 85.8281 22.3645C85.8281 22.2084 85.8672 22.0913 85.9843 21.9742 86.1014 21.8571 86.2184 21.8181 86.3746 21.8181L86.4526 21.8181C86.6087 21.8181 86.7258 21.8571 86.8429 21.9742 86.96 22.0913 86.9991 22.2084 86.9991 22.3645L86.9991 22.6767ZM89.1067 20.1788C89.1067 20.1007 89.0677 20.0227 89.0286 19.9836 88.9896 19.9446 88.9116 19.9056 88.8725 19.9056 88.7945 19.9056 88.7554 19.9446 88.7164 19.9836 88.6774 20.0227 88.6383 20.1007 88.6383 20.1788L88.6383 20.3349C88.6383 20.413 88.6774 20.491 88.7164 20.5301 88.7554 20.5691 88.8335 20.6081 88.8725 20.6081 88.9506 20.6081 88.9896 20.5691 89.0286 20.5301 89.0677 20.491 89.1067 20.413 89.1067 20.3349L89.1067 20.1788ZM89.1067 21.5449C89.1067 21.4668 89.0677 21.3887 89.0286 21.3497 88.9896 21.3107 88.9116 21.2716 88.8725 21.2716 88.7945 21.2716 88.7554 21.3107 88.7164 21.3497 88.6774 21.3887 88.6383 21.4668 88.6383 21.5449L88.6383 24.277C88.6383 24.3551 88.6774 24.4331 88.7164 24.4721 88.7554 24.5112 88.8335 24.5502 88.8725 24.5502 88.9506 24.5502 88.9896 24.5112 89.0286 24.4721 89.0677 24.4331 89.1067 24.3551 89.1067 24.277L89.1067 21.5449ZM91.6827 24.0818C91.6437 24.0428 91.6047 24.0038 91.5266 24.0038 91.4095 24.0038 91.3314 23.9647 91.2534 23.8867 91.1753 23.8086 91.1363 23.7306 91.1363 23.6135L91.1363 21.779 91.4876 21.779C91.5656 21.779 91.6437 21.74 91.6827 21.701 91.7217 21.6619 91.7608 21.5839 91.7608 21.5449 91.7608 21.4668 91.7217 21.4278 91.6827 21.3887 91.6437 21.3497 91.5656 21.3107 91.4876 21.3107L91.1363 21.3107 91.1363 20.1788C91.1363 20.1007 91.0973 20.0227 91.0582 19.9836 91.0192 19.9446 90.9411 19.9056 90.9021 19.9056 90.824 19.9056 90.785 19.9446 90.746 19.9836 90.707 20.0227 90.6679 20.1007 90.6679 20.1788L90.6679 21.3107 90.4337 21.3107C90.3557 21.3107 90.2776 21.3497 90.2386 21.3887 90.1996 21.4278 90.1605 21.5058 90.1605 21.5449 90.1605 21.6229 90.1996 21.6619 90.2386 21.701 90.2776 21.74 90.3557 21.779 90.4337 21.779L90.6679 21.779 90.6679 23.6135C90.6679 23.7306 90.707 23.8477 90.746 23.9647 90.785 24.0818 90.8631 24.1599 90.9411 24.238 91.0192 24.316 91.0973 24.3941 91.2143 24.4331 91.3314 24.4721 91.4485 24.5112 91.5656 24.5112 91.6437 24.5112 91.7217 24.4721 91.7608 24.4331 91.7998 24.3941 91.8388 24.316 91.8388 24.277 91.7217 24.1989 91.7217 24.1209 91.6827 24.0818M95.3516 24.3941C95.2345 24.238 95.1564 24.0428 95.0784 23.8086 95.0003 23.6135 94.9222 23.3793 94.8832 23.1061 94.8442 22.8719 94.8052 22.5987 94.8052 22.3255 94.8052 22.0522 94.8442 21.779 94.8832 21.5449 94.9222 21.3107 95.0003 21.0765 95.0784 20.8423 95.1564 20.6472 95.2345 20.452 95.3516 20.2568 95.4687 20.1007 95.5467 19.9446 95.6638 19.8275 95.7029 19.7885 95.7419 19.7104 95.7419 19.6714 95.7419 19.5933 95.7029 19.5543 95.6638 19.5153 95.5858 19.4762 95.5467 19.4372 95.5077 19.4372 95.4296 19.4372 95.3906 19.4762 95.3516 19.5153 95.2345 19.6714 95.0784 19.8275 94.9613 20.0227 94.8442 20.2178 94.7271 20.452 94.649 20.6862 94.571 20.9204 94.4929 21.1936 94.4539 21.4668 94.4149 21.74 94.3758 22.0132 94.3758 22.3255 94.3758 22.6377 94.4149 22.9109 94.4539 23.1841 94.4929 23.4573 94.571 23.7306 94.649 23.9647 94.7271 24.1989 94.8442 24.4331 94.9613 24.6283 95.0784 24.8234 95.1955 24.9795 95.3516 25.1357 95.3906 25.1747 95.4687 25.2137 95.5077 25.2137 95.5858 25.2137 95.6248 25.1747 95.6638 25.1357 95.7029 25.0966 95.7419 25.0576 95.7419 24.9795 95.7419 24.9405 95.7029 24.8624 95.6638 24.8234 95.5467 24.7063 95.4296 24.5502 95.3516 24.3941M99.0595 22.2474C99.0595 22.1693 99.0205 22.1303 98.9814 22.0913 98.9424 22.0522 98.8643 22.0132 98.8253 22.0132L97.8886 22.0132C97.8105 22.0132 97.7324 22.0522 97.6934 22.0913 97.6544 22.1303 97.6154 22.2084 97.6154 22.2474 97.6154 22.3255 97.6544 22.3645 97.6934 22.4035 97.7324 22.4426 97.8105 22.4816 97.8886 22.4816L98.5521 22.4816 98.5521 23.2232C98.5521 23.3403 98.5131 23.4183 98.474 23.4964 98.435 23.5744 98.396 23.6525 98.3179 23.7306 98.2398 23.8086 98.1618 23.8477 98.0837 23.8867 98.0057 23.9257 97.8886 23.9647 97.8105 23.9647L97.7324 23.9647C97.6154 23.9647 97.5373 23.9647 97.4592 23.8867 97.3812 23.8477 97.3031 23.8086 97.2251 23.7306 97.147 23.6525 97.108 23.5744 97.0689 23.4964 97.0299 23.4183 96.9909 23.3012 96.9909 23.2232L96.9909 21.1155C96.9909 20.9984 97.0299 20.9204 97.0689 20.8423 97.108 20.7642 97.147 20.6862 97.2251 20.6081 97.3031 20.5301 97.3812 20.491 97.4592 20.452 97.5373 20.413 97.6544 20.3739 97.7324 20.3739L97.8105 20.3739C98.0057 20.3739 98.2008 20.452 98.3179 20.5691 98.435 20.6862 98.5131 20.8423 98.5521 21.0375 98.5521 21.1155 98.5911 21.1545 98.6301 21.1936 98.6692 21.2326 98.7472 21.2326 98.7863 21.2326 98.8643 21.2326 98.9034 21.1936 98.9424 21.1545 98.9814 21.1155 99.0205 21.0375 99.0205 20.9594L99.0205 20.9204C98.9814 20.7642 98.9424 20.6081 98.8643 20.491 98.7863 20.3739 98.7082 20.2568 98.5911 20.1398 98.474 20.0617 98.3569 19.9836 98.2008 19.9056 98.0447 19.8665 97.9276 19.8275 97.7715 19.8275L97.6934 19.8275C97.5373 19.8275 97.3812 19.8665 97.2251 19.9056 97.0689 19.9836 96.9518 20.0617 96.8347 20.1788 96.7177 20.2959 96.6396 20.413 96.5615 20.5691 96.4835 20.7252 96.4835 20.8813 96.4835 21.0375L96.4835 23.1451C96.4835 23.3012 96.5225 23.4964 96.5615 23.6135 96.6396 23.7696 96.7177 23.8867 96.8347 24.0038 96.9518 24.1209 97.0689 24.1989 97.2251 24.277 97.3812 24.3551 97.5373 24.3551 97.6934 24.3551L97.7715 24.3551C97.9276 24.3551 98.0837 24.316 98.2398 24.277 98.396 24.1989 98.5131 24.1209 98.6301 24.0038 98.7472 23.8867 98.8253 23.7696 98.9034 23.6135 98.9814 23.4573 98.9814 23.3012 98.9814 23.1451L98.9814 22.2474ZM100.855 20.1788C100.855 20.1007 100.816 20.0227 100.777 19.9836 100.738 19.9446 100.66 19.9056 100.621 19.9056 100.582 19.9056 100.504 19.9446 100.465 19.9836 100.426 20.0227 100.387 20.1007 100.387 20.1788L100.387 24.238C100.387 24.316 100.426 24.3941 100.465 24.4331 100.504 24.4721 100.582 24.5112 100.621 24.5112 100.66 24.5112 100.738 24.4721 100.777 24.4331 100.816 24.3941 100.855 24.316 100.855 24.238L100.855 20.1788ZM104.446 24.0428C104.407 24.0038 104.329 23.9647 104.251 23.9647L102.65 23.9647 104.485 20.413C104.524 20.3739 104.524 20.2959 104.524 20.2568 104.524 20.1788 104.485 20.1007 104.446 20.0617 104.407 20.0227 104.329 19.9836 104.212 19.9836L102.338 19.9836C102.26 19.9836 102.182 20.0227 102.143 20.0617 102.104 20.1007 102.065 20.1788 102.065 20.2178 102.065 20.2959 102.104 20.3349 102.143 20.3739 102.182 20.413 102.26 20.452 102.338 20.452L103.899 20.452 102.065 24.0038C102.026 24.0428 102.026 24.1209 102.026 24.1599 102.026 24.238 102.065 24.316 102.104 24.3941 102.143 24.4721 102.221 24.4721 102.299 24.4721L104.251 24.4721C104.329 24.4721 104.407 24.4331 104.446 24.3941 104.485 24.3551 104.524 24.277 104.524 24.238 104.524 24.1599 104.485 24.0818 104.446 24.0428M106.709 21.5058C106.67 21.2326 106.592 20.9594 106.514 20.7252 106.436 20.491 106.319 20.2568 106.202 20.0617 106.085 19.8665 105.968 19.7104 105.812 19.5543 105.773 19.5153 105.695 19.4762 105.656 19.4762 105.617 19.4762 105.539 19.5153 105.5 19.5543 105.461 19.5933 105.421 19.6714 105.421 19.7104 105.421 19.7494 105.461 19.8275 105.5 19.8665 105.617 19.9836 105.734 20.1007 105.812 20.2959 105.929 20.452 106.007 20.6472 106.085 20.8813 106.163 21.0765 106.241 21.3107 106.28 21.5839 106.319 21.8181 106.358 22.0913 106.358 22.3645 106.358 22.6377 106.319 22.9109 106.28 23.1451 106.241 23.3793 106.163 23.6135 106.085 23.8477 106.007 24.0428 105.929 24.238 105.812 24.4331 105.695 24.5892 105.617 24.7454 105.5 24.8624 105.461 24.9015 105.421 24.9795 105.421 25.0186 105.421 25.0966 105.461 25.1357 105.5 25.1747 105.539 25.2137 105.617 25.2528 105.695 25.2528 105.734 25.2528 105.812 25.2137 105.851 25.1747 106.007 25.0576 106.124 24.8624 106.241 24.6673 106.358 24.4721 106.475 24.238 106.553 24.0038 106.631 23.7696 106.709 23.4964 106.749 23.2232 106.788 22.95 106.827 22.6377 106.827 22.3645 106.788 22.0522 106.749 21.779 106.709 21.5058M111.862 22.2474C111.862 22.1693 111.822 22.1303 111.783 22.0913 111.744 22.0522 111.666 22.0132 111.627 22.0132L110.691 22.0132C110.613 22.0132 110.534 22.0522 110.495 22.0913 110.456 22.1303 110.417 22.2084 110.417 22.2474 110.417 22.3255 110.456 22.3645 110.495 22.4035 110.534 22.4426 110.613 22.4816 110.691 22.4816L111.354 22.4816 111.354 23.2232C111.354 23.3403 111.315 23.4183 111.276 23.4964 111.237 23.5744 111.198 23.6525 111.12 23.7306 111.042 23.8086 110.964 23.8477 110.886 23.8867 110.808 23.9257 110.691 23.9647 110.613 23.9647L110.534 23.9647C110.417 23.9647 110.339 23.9647 110.261 23.8867 110.183 23.8477 110.105 23.8086 110.027 23.7306 109.949 23.6525 109.91 23.5744 109.871 23.4964 109.832 23.4183 109.793 23.3012 109.793 23.2232L109.793 21.1155C109.793 20.9984 109.832 20.9204 109.871 20.8423 109.91 20.7642 109.949 20.6862 110.027 20.6081 110.105 20.5301 110.183 20.491 110.261 20.452 110.339 20.413 110.456 20.3739 110.534 20.3739L110.613 20.3739C110.808 20.3739 111.003 20.452 111.12 20.5691 111.237 20.6862 111.315 20.8423 111.354 21.0375 111.354 21.1155 111.393 21.1545 111.432 21.1936 111.471 21.2326 111.549 21.2326 111.588 21.2326 111.666 21.2326 111.705 21.1936 111.744 21.1545 111.783 21.1155 111.822 21.0375 111.822 20.9594L111.822 20.9204C111.783 20.7642 111.744 20.6081 111.666 20.491 111.588 20.3739 111.51 20.2568 111.393 20.1398 111.276 20.0617 111.159 19.9836 111.003 19.9056 110.847 19.8665 110.73 19.8275 110.573 19.8275L110.495 19.8275C110.339 19.8275 110.183 19.8665 110.027 19.9056 109.871 19.9836 109.754 20.0617 109.637 20.1788 109.52 20.2959 109.442 20.413 109.364 20.5691 109.285 20.7252 109.285 20.8813 109.285 21.0375L109.285 23.1451C109.285 23.3012 109.325 23.4964 109.364 23.6135 109.442 23.7696 109.52 23.8867 109.637 24.0038 109.754 24.1209 109.871 24.1989 110.027 24.277 110.183 24.3551 110.339 24.3551 110.495 24.3551L110.573 24.3551C110.73 24.3551 110.886 24.316 111.042 24.277 111.198 24.1989 111.315 24.1209 111.432 24.0038 111.549 23.8867 111.627 23.7696 111.705 23.6135 111.783 23.4573 111.783 23.3012 111.783 23.1451L111.783 22.2474ZM116.857 22.3255C116.857 22.1303 116.818 21.9742 116.779 21.8571 116.74 21.74 116.662 21.6229 116.545 21.5449 116.467 21.4668 116.35 21.3887 116.194 21.3497 116.077 21.3107 115.921 21.2716 115.804 21.2716L115.726 21.2716C115.569 21.2716 115.413 21.3107 115.257 21.3887 115.14 21.4668 114.984 21.5449 114.906 21.6619 114.789 21.5449 114.672 21.4668 114.555 21.3887 114.398 21.3107 114.281 21.2716 114.086 21.2716L114.008 21.2716C113.891 21.2716 113.774 21.2716 113.696 21.3107 113.579 21.3497 113.501 21.3887 113.462 21.4668 113.462 21.3887 113.423 21.3497 113.384 21.3107 113.345 21.2716 113.267 21.2716 113.228 21.2716 113.15 21.2716 113.11 21.3107 113.032 21.3497 112.993 21.3887 112.954 21.4668 112.954 21.5449L112.954 24.277C112.954 24.3551 112.993 24.4331 113.032 24.4721 113.071 24.5112 113.15 24.5502 113.189 24.5502 113.228 24.5502 113.306 24.5112 113.345 24.4721 113.384 24.4331 113.423 24.3551 113.423 24.277L113.423 22.2864C113.423 22.1303 113.462 22.0132 113.579 21.9352 113.696 21.8571 113.813 21.8181 113.969 21.8181L114.047 21.8181C114.203 21.8181 114.32 21.8571 114.438 21.9742 114.555 22.0913 114.594 22.2084 114.594 22.3645L114.594 24.277C114.594 24.3551 114.633 24.4331 114.672 24.4721 114.711 24.5112 114.789 24.5502 114.828 24.5502 114.906 24.5502 114.945 24.5112 114.984 24.4721 115.023 24.4331 115.062 24.3551 115.062 24.277L115.062 22.3645C115.062 22.2084 115.101 22.0522 115.218 21.9742 115.335 21.8571 115.452 21.8181 115.608 21.8181L115.686 21.8181C115.843 21.8181 115.999 21.8571 116.077 21.9352 116.194 22.0132 116.233 22.1693 116.233 22.3255L116.233 24.238C116.233 24.316 116.272 24.3941 116.311 24.4331 116.35 24.4721 116.428 24.5112 116.467 24.5112 116.545 24.5112 116.584 24.4721 116.623 24.4331 116.662 24.3941 116.701 24.316 116.701 24.238L116.701 22.3255ZM120.253 22.3255C120.253 22.1693 120.214 22.0522 120.175 21.9352 120.136 21.8181 120.058 21.701 119.941 21.5839 119.863 21.5058 119.746 21.4278 119.59 21.3497 119.472 21.3107 119.316 21.2716 119.16 21.2716L119.121 21.2716C119.004 21.2716 118.887 21.2716 118.809 21.3107 118.692 21.3497 118.614 21.3887 118.575 21.4668L118.575 20.1398C118.575 20.0617 118.536 19.9836 118.497 19.9446 118.458 19.9056 118.38 19.8665 118.341 19.8665 118.263 19.8665 118.223 19.9056 118.184 19.9446 118.145 19.9836 118.106 20.0617 118.106 20.1398L118.106 24.238C118.106 24.316 118.145 24.3551 118.184 24.3941 118.223 24.4331 118.302 24.4331 118.341 24.4331 118.38 24.4331 118.458 24.4331 118.497 24.3941 118.536 24.3551 118.575 24.316 118.575 24.238 118.614 24.277 118.692 24.316 118.77 24.3551 118.848 24.3941 118.965 24.4331 119.121 24.4331L119.199 24.4331C119.355 24.4331 119.472 24.3941 119.59 24.3551 119.707 24.316 119.824 24.238 119.941 24.1209 120.019 24.0428 120.097 23.9257 120.175 23.8086 120.214 23.6915 120.253 23.5354 120.253 23.3793L120.253 22.3255ZM119.746 23.4573C119.746 23.6135 119.707 23.7306 119.59 23.8477 119.472 23.9647 119.355 24.0038 119.199 24.0038L119.121 24.0038C118.965 24.0038 118.848 23.9647 118.731 23.8867 118.614 23.8086 118.575 23.6525 118.575 23.4964L118.575 22.2864C118.575 22.1303 118.614 22.0132 118.731 21.9352 118.848 21.8571 118.965 21.8181 119.121 21.8181L119.199 21.8181C119.355 21.8181 119.472 21.8571 119.59 21.9742 119.707 22.0913 119.746 22.2084 119.746 22.3645L119.746 23.4573ZM124 20.1788C124 20.1007 123.961 20.0227 123.922 19.9836 123.883 19.9446 123.805 19.9056 123.766 19.9056 123.688 19.9056 123.649 19.9446 123.61 19.9836 123.571 20.0227 123.532 20.1007 123.532 20.1788L123.532 21.8961 121.97 21.8961 121.97 20.1788C121.97 20.1007 121.931 20.0227 121.892 19.9836 121.853 19.9446 121.775 19.9056 121.697 19.9056 121.619 19.9056 121.58 19.9446 121.541 19.9836 121.502 20.0227 121.463 20.1007 121.463 20.1788L121.463 24.238C121.463 24.316 121.502 24.3941 121.541 24.4331 121.58 24.4721 121.658 24.5112 121.697 24.5112 121.775 24.5112 121.814 24.4721 121.853 24.4331 121.892 24.3941 121.931 24.316 121.931 24.238L121.931 22.3645 123.493 22.3645 123.493 24.238C123.493 24.316 123.532 24.3941 123.571 24.4331 123.61 24.4721 123.688 24.4721 123.727 24.4721 123.805 24.4721 123.844 24.4721 123.883 24.4331 123.922 24.3941 123.961 24.316 123.961 24.238L123.961 20.1788Z" fill="#D40F14" transform="matrix(1 0 0 1.01963 620 55.064)"/><path d="M47.6172 12.8801C47.5782 12.841 47.5002 12.802 47.4221 12.802 47.305 12.802 47.1879 12.841 47.0708 12.8801 46.9537 12.9191 46.8757 12.9972 46.7976 13.0752 46.7195 13.1533 46.6805 13.2314 46.6025 13.3484 46.5634 13.4655 46.5244 13.5826 46.5244 13.6997L46.5244 14.2071 46.4463 14.2071C46.3683 14.2071 46.2902 14.2461 46.2512 14.2852 46.2122 14.3242 46.1731 14.4023 46.1731 14.4413 46.1731 14.4803 46.2122 14.5584 46.2512 14.5974 46.2902 14.6364 46.3683 14.6755 46.4463 14.6755L46.6025 14.6755 46.6025 17.1344C46.6025 17.2125 46.6415 17.2905 46.6805 17.3296 46.7195 17.3686 46.7976 17.4076 46.8366 17.4076 46.9147 17.4076 46.9537 17.3686 46.9928 17.3296 47.0318 17.2905 47.0708 17.2125 47.0708 17.1344L47.0708 14.6755 47.3831 14.6755C47.4611 14.6755 47.5392 14.6364 47.5782 14.5974 47.6172 14.5584 47.6563 14.4803 47.6563 14.4413 47.6563 14.4023 47.6563 14.3242 47.5782 14.2852 47.5392 14.2461 47.4611 14.2071 47.3831 14.2071L47.0708 14.2071 47.0708 13.6607C47.0708 13.5436 47.1098 13.4655 47.1489 13.3875 47.2269 13.3094 47.305 13.2704 47.3831 13.2704 47.4611 13.2704 47.5392 13.2314 47.5782 13.1923 47.6172 13.1533 47.6563 13.0752 47.6563 13.0362 47.6953 12.9972 47.6563 12.9581 47.6172 12.8801M50.5055 13.0752C50.5055 12.9972 50.4665 12.9191 50.4274 12.8801 50.3884 12.841 50.3104 12.802 50.2713 12.802 50.2323 12.802 50.1542 12.841 50.1152 12.8801 50.0762 12.9191 50.0371 12.9972 50.0371 13.0752L50.0371 13.2314C50.0371 13.3094 50.0762 13.3875 50.1152 13.4265 50.1542 13.4655 50.2323 13.5046 50.2713 13.5046 50.3104 13.5046 50.3884 13.4655 50.4274 13.4265 50.4665 13.3875 50.5055 13.3094 50.5055 13.2314L50.5055 13.0752ZM49.3346 13.0752C49.3346 12.9972 49.2956 12.9191 49.2565 12.8801 49.2175 12.841 49.1394 12.802 49.1004 12.802 49.0223 12.802 48.9833 12.841 48.9443 12.8801 48.9053 12.9191 48.8662 12.9972 48.8662 13.0752L48.8662 13.2314C48.8662 13.3094 48.9053 13.3875 48.9443 13.4265 48.9833 13.4655 49.0614 13.5046 49.1004 13.5046 49.1785 13.5046 49.2175 13.4655 49.2565 13.4265 49.2956 13.3875 49.3346 13.3094 49.3346 13.2314L49.3346 13.0752ZM50.7397 14.4023C50.7397 14.3242 50.7007 14.2461 50.6616 14.2071 50.6226 14.1681 50.5445 14.1291 50.5055 14.1291 50.4274 14.1291 50.3884 14.1681 50.3494 14.2071 50.3104 14.2461 50.2713 14.3242 50.2713 14.4023L50.2713 16.3148C50.2713 16.4709 50.2323 16.588 50.1152 16.7051 49.9981 16.8222 49.881 16.8612 49.7249 16.8612L49.6468 16.8612C49.4907 16.8612 49.3736 16.8222 49.2565 16.7051 49.1394 16.588 49.1004 16.4709 49.1004 16.3148L49.1004 14.4023C49.1004 14.3242 49.0614 14.2461 49.0223 14.2071 48.9833 14.1681 48.9053 14.1291 48.8662 14.1291 48.7882 14.1291 48.7491 14.1681 48.7101 14.2071 48.6711 14.2461 48.632 14.3242 48.632 14.4023L48.632 16.3148C48.632 16.5099 48.6711 16.666 48.7101 16.7831 48.7491 16.9002 48.8272 17.0173 48.9443 17.0954 49.0223 17.1734 49.1394 17.2515 49.2956 17.2905 49.4127 17.3296 49.5688 17.3686 49.6859 17.3686L49.7639 17.3686C49.881 17.3686 49.9981 17.3686 50.0762 17.3296 50.1933 17.2905 50.2713 17.2515 50.3104 17.1734 50.3104 17.2515 50.3494 17.2905 50.3884 17.3296 50.4274 17.3686 50.5055 17.3686 50.5445 17.3686 50.6226 17.3686 50.6616 17.3296 50.7007 17.2905 50.7397 17.2515 50.7787 17.1734 50.7787 17.0954L50.7787 14.4023ZM53.5109 14.4803C53.4328 14.3632 53.3157 14.2852 53.1986 14.2461 53.0815 14.2071 52.9644 14.1681 52.8083 14.1681 52.7303 14.1681 52.6522 14.1681 52.5741 14.1681 52.5351 14.1681 52.457 14.2071 52.418 14.2071 52.379 14.2071 52.3399 14.2461 52.3009 14.2852 52.2619 14.2461 52.2619 14.2071 52.2229 14.1681 52.1838 14.1291 52.1448 14.1291 52.1058 14.1291 52.0277 14.1291 51.9887 14.1681 51.9496 14.2071 51.9106 14.2461 51.8716 14.3242 51.8716 14.4023L51.8716 17.0954C51.8716 17.1734 51.9106 17.2515 51.9496 17.2905 51.9887 17.3296 52.0667 17.3686 52.1058 17.3686 52.1838 17.3686 52.2229 17.3296 52.2619 17.2905 52.3009 17.2515 52.3399 17.1734 52.3399 17.0954L52.3399 15.0658C52.3399 15.0268 52.3399 14.9487 52.3399 14.9097 52.3399 14.8706 52.379 14.7926 52.418 14.7535 52.457 14.7145 52.4961 14.6755 52.5351 14.6364 52.5741 14.5974 52.6522 14.5974 52.7693 14.5974 52.8473 14.5974 52.9254 14.5974 52.9644 14.6364 53.0035 14.6755 53.0425 14.7145 53.0815 14.7145 53.1596 14.7926 53.1986 14.7926 53.2767 14.7926 53.3547 14.7926 53.3938 14.7535 53.4328 14.7145 53.4718 14.6755 53.5109 14.5974 53.5109 14.5584 53.5889 14.5974 53.5499 14.5584 53.5109 14.4803M57.2188 13.0752C57.2188 12.9972 57.1797 12.9191 57.1407 12.8801 57.1017 12.841 57.0236 12.802 56.9846 12.802 56.9455 12.802 56.8675 12.841 56.8285 12.8801 56.7894 12.9191 56.7504 12.9972 56.7504 13.0752L56.7504 17.1734C56.7504 17.2515 56.7894 17.3296 56.8285 17.3686 56.8675 17.4076 56.9455 17.4466 56.9846 17.4466 57.0236 17.4466 57.1017 17.4076 57.1407 17.3686 57.1797 17.3296 57.2188 17.2515 57.2188 17.1734L57.2188 13.0752ZM60.6925 15.2219C60.6925 15.0268 60.6534 14.8706 60.6144 14.7535 60.5754 14.6364 60.4973 14.5194 60.3802 14.4413 60.3022 14.3632 60.1851 14.2852 60.029 14.2461 59.9119 14.2071 59.7557 14.1681 59.6387 14.1681L59.5606 14.1681C59.4435 14.1681 59.3264 14.1681 59.2483 14.2071 59.1313 14.2461 59.0532 14.2852 59.0142 14.3632 59.0142 14.2852 58.9751 14.2461 58.9361 14.2071 58.8971 14.1681 58.819 14.1681 58.78 14.1681 58.7019 14.1681 58.6629 14.2071 58.5848 14.2461 58.5458 14.2852 58.5068 14.3632 58.5068 14.4413L58.5068 17.1734C58.5068 17.2515 58.5458 17.3296 58.5848 17.3686 58.6239 17.4076 58.7019 17.4466 58.7409 17.4466 58.819 17.4466 58.858 17.4076 58.8971 17.3686 58.9361 17.3296 58.9751 17.2515 58.9751 17.1734L58.9751 15.2219C58.9751 15.0658 59.0142 14.9487 59.1313 14.8316 59.2483 14.7145 59.3654 14.6755 59.5216 14.6755L59.5606 14.6755C59.7167 14.6755 59.8338 14.7145 59.9509 14.8316 60.068 14.9487 60.107 15.0658 60.107 15.2219L60.107 17.1344C60.107 17.2125 60.146 17.2905 60.1851 17.3296 60.2241 17.3686 60.3022 17.4076 60.3412 17.4076 60.4193 17.4076 60.4583 17.3686 60.4973 17.3296 60.5364 17.2905 60.5754 17.2125 60.5754 17.1344L60.5754 15.2219ZM63.1514 16.9783C63.1124 16.9393 63.0733 16.9002 62.9953 16.9002 62.8782 16.9002 62.8001 16.8612 62.7221 16.7831 62.644 16.7051 62.605 16.627 62.605 16.5099L62.605 14.6755 62.9562 14.6755C63.0343 14.6755 63.1124 14.6364 63.1514 14.5974 63.1904 14.5584 63.2295 14.4803 63.2295 14.4413 63.2295 14.4023 63.1904 14.3242 63.1514 14.2852 63.1124 14.2461 63.0343 14.2071 62.9562 14.2071L62.605 14.2071 62.605 13.0752C62.605 12.9972 62.5659 12.9191 62.5269 12.8801 62.4879 12.841 62.4098 12.802 62.3708 12.802 62.2927 12.802 62.2537 12.841 62.2147 12.8801 62.1756 12.9191 62.1366 12.9972 62.1366 13.0752L62.1366 14.2071 61.9024 14.2071C61.8244 14.2071 61.7463 14.2461 61.7073 14.2852 61.6682 14.3242 61.6292 14.4023 61.6292 14.4413 61.6292 14.4803 61.6682 14.5584 61.7073 14.5974 61.7463 14.6364 61.8244 14.6755 61.9024 14.6755L62.1366 14.6755 62.1366 16.5099C62.1366 16.627 62.1756 16.7441 62.2147 16.8612 62.2537 16.9783 62.3318 17.0563 62.4098 17.1344 62.4879 17.2125 62.5659 17.2905 62.683 17.3296 62.8001 17.3686 62.9172 17.4076 63.0343 17.4076 63.1124 17.4076 63.1904 17.3686 63.2295 17.3296 63.2685 17.2905 63.3075 17.2125 63.3075 17.1734 63.1904 17.0954 63.1904 17.0173 63.1514 16.9783M66.2738 15.2219C66.2738 15.0658 66.2348 14.9487 66.1958 14.7926 66.1568 14.6364 66.0787 14.5584 65.9616 14.4413 65.8835 14.3632 65.7664 14.2852 65.6103 14.2071 65.4932 14.1681 65.3371 14.1291 65.22 14.1291L65.142 14.1291C64.9858 14.1291 64.8687 14.1681 64.7516 14.2071 64.6346 14.2461 64.5175 14.3242 64.4004 14.4413 64.3223 14.5194 64.2443 14.6364 64.1662 14.7926 64.1272 14.9097 64.0881 15.0658 64.0881 15.1829L64.0881 16.3148C64.0881 16.4709 64.1272 16.588 64.1662 16.7051 64.2052 16.8222 64.2833 16.9393 64.4004 17.0173 64.4784 17.0954 64.5955 17.1734 64.7516 17.2515 64.8687 17.2905 65.0249 17.3296 65.142 17.3296L65.22 17.3296C65.4542 17.3296 65.6494 17.2905 65.8055 17.1734 65.9616 17.0563 66.0787 16.9002 66.1568 16.7441 66.1568 16.7051 66.1958 16.666 66.1958 16.627 66.1958 16.5489 66.1568 16.5099 66.1177 16.4319 66.0787 16.3928 66.0006 16.3538 65.9226 16.3538 65.8835 16.3538 65.8445 16.3538 65.8055 16.3928 65.7664 16.4319 65.7274 16.4709 65.7274 16.5099 65.6884 16.588 65.6103 16.666 65.5323 16.7441 65.4542 16.8222 65.3371 16.8612 65.22 16.8612L65.142 16.8612C64.9858 16.8612 64.8687 16.8222 64.7516 16.7051 64.6346 16.588 64.5955 16.4709 64.5955 16.3148L64.5955 16.0025 66.0006 16.0025C66.0787 16.0025 66.1177 15.9635 66.1568 15.9245 66.1958 15.8854 66.2348 15.8074 66.2348 15.7683L66.2348 15.2219ZM65.7664 15.5732 64.5955 15.5732 64.5955 15.2219C64.5955 15.0658 64.6346 14.9487 64.7516 14.8316 64.8687 14.7145 64.9858 14.6755 65.142 14.6755L65.22 14.6755C65.3761 14.6755 65.4932 14.7145 65.6103 14.8316 65.7274 14.9487 65.7664 15.0658 65.7664 15.2219L65.7664 15.5732ZM68.9279 14.4803C68.8499 14.3632 68.7328 14.2852 68.6157 14.2461 68.4986 14.2071 68.3815 14.1681 68.2254 14.1681 68.1473 14.1681 68.0692 14.1681 67.9912 14.1681 67.9522 14.1681 67.8741 14.2071 67.8351 14.2071 67.796 14.2071 67.757 14.2461 67.718 14.2852 67.6789 14.2461 67.6789 14.2071 67.6399 14.1681 67.6009 14.1291 67.5619 14.1291 67.5228 14.1291 67.4448 14.1291 67.4057 14.1681 67.3667 14.2071 67.3277 14.2461 67.2886 14.3242 67.2886 14.4023L67.2886 17.0954C67.2886 17.1734 67.3277 17.2515 67.3667 17.2905 67.4057 17.3296 67.4838 17.3686 67.5228 17.3686 67.6009 17.3686 67.6399 17.3296 67.6789 17.2905 67.718 17.2515 67.757 17.1734 67.757 17.0954L67.757 15.0658C67.757 15.0268 67.757 14.9487 67.757 14.9097 67.757 14.8706 67.796 14.7926 67.8351 14.7535 67.8741 14.7145 67.9131 14.6755 67.9522 14.6364 67.9912 14.5974 68.0692 14.5974 68.1863 14.5974 68.2644 14.5974 68.3425 14.5974 68.3815 14.6364 68.4205 14.6755 68.4595 14.7145 68.4986 14.7145 68.5766 14.7926 68.6157 14.7926 68.6937 14.7926 68.7718 14.7926 68.8108 14.7535 68.8499 14.7145 68.8889 14.6755 68.9279 14.5974 68.9279 14.5584 69.006 14.5974 68.9669 14.5584 68.9279 14.4803M72.0113 15.2219C72.0113 15.0268 71.9723 14.8706 71.9333 14.7535 71.8942 14.6364 71.8162 14.5194 71.6991 14.4413 71.621 14.3632 71.5039 14.2852 71.3478 14.2461 71.2307 14.2071 71.0746 14.1681 70.9575 14.1681L70.8794 14.1681C70.7624 14.1681 70.6453 14.1681 70.5672 14.2071 70.4891 14.2461 70.372 14.2852 70.333 14.3632 70.333 14.2852 70.294 14.2461 70.255 14.2071 70.2159 14.1681 70.1379 14.1681 70.0988 14.1681 70.0208 14.1681 69.9817 14.2071 69.9427 14.2461 69.9037 14.2852 69.8646 14.3632 69.8646 14.4413L69.8646 17.1734C69.8646 17.2515 69.9037 17.3296 69.9427 17.3686 69.9817 17.4076 70.0598 17.4466 70.0988 17.4466 70.1769 17.4466 70.2159 17.4076 70.255 17.3686 70.294 17.3296 70.333 17.2515 70.333 17.1734L70.333 15.2219C70.333 15.0658 70.372 14.9487 70.4891 14.8316 70.6062 14.7145 70.7233 14.6755 70.8794 14.6755L70.9185 14.6755C71.0746 14.6755 71.1917 14.7145 71.3088 14.8316 71.4259 14.9487 71.4649 15.0658 71.4649 15.2219L71.4649 17.1344C71.4649 17.2125 71.5039 17.2905 71.543 17.3296 71.582 17.3686 71.6601 17.4076 71.6991 17.4076 71.7771 17.4076 71.8162 17.3686 71.8552 17.3296 71.8942 17.2905 71.9333 17.2125 71.9333 17.1344L71.9333 15.2219ZM75.485 16.9783C75.446 16.9393 75.407 16.9002 75.3289 16.9002 75.2118 16.8612 75.1728 16.8222 75.1728 16.666L75.1728 15.1438C75.1728 14.9877 75.1338 14.8706 75.0947 14.7535 75.0557 14.6364 74.9777 14.5194 74.8606 14.4413 74.7825 14.3632 74.6654 14.2852 74.5483 14.2071 74.4312 14.1681 74.2751 14.1291 74.158 14.1291L74.119 14.1291C74.0409 14.1291 73.9629 14.1291 73.8458 14.1681 73.7677 14.1681 73.6506 14.2071 73.5725 14.2461 73.4945 14.2852 73.4164 14.3632 73.3384 14.4413 73.2603 14.5194 73.1822 14.5974 73.1432 14.7145 73.1432 14.7535 73.1042 14.7926 73.1042 14.8316 73.1042 14.9097 73.1432 14.9487 73.1822 14.9877 73.2213 15.0268 73.2993 15.0658 73.3384 15.0658 73.3774 15.0658 73.4164 15.0658 73.4555 15.0268 73.4945 14.9877 73.5335 14.9877 73.5335 14.9097 73.6116 14.7926 73.6506 14.7145 73.7287 14.6755 73.8067 14.6364 73.9238 14.5974 74.0409 14.5974L74.0799 14.5974C74.2361 14.5974 74.3532 14.6364 74.4312 14.7145 74.5483 14.7926 74.5873 14.9487 74.5873 15.1048 74.5873 15.1048 74.5873 15.1438 74.5873 15.1829 74.5873 15.2219 74.5873 15.2219 74.5873 15.2219 74.5483 15.2609 74.5093 15.3 74.3922 15.3 74.3141 15.3 74.197 15.339 74.0799 15.378 73.9629 15.4171 73.8458 15.4171 73.6896 15.4561 73.5725 15.4951 73.4164 15.5342 73.2993 15.6122 73.1822 15.6903 73.1042 15.7683 73.0261 15.8854 72.9481 16.0025 72.909 16.1196 72.909 16.3148L72.909 16.3928C72.909 16.5489 72.9481 16.666 72.9871 16.7831 73.0261 16.9002 73.1432 17.0173 73.2213 17.0563 73.2993 17.1344 73.4164 17.2125 73.5725 17.2515 73.7287 17.2905 73.8458 17.3296 73.9629 17.3296L74.0409 17.3296C74.3141 17.3296 74.5483 17.2515 74.7435 17.0954 74.7825 17.1734 74.8606 17.2125 74.8996 17.2515 74.9777 17.2905 75.0557 17.3296 75.1728 17.3296 75.1728 17.3296 75.2118 17.3296 75.2118 17.3296 75.2899 17.3296 75.368 17.2905 75.407 17.2515 75.446 17.2125 75.485 17.1344 75.485 17.0954 75.5631 17.0954 75.5241 17.0173 75.485 16.9783M74.6654 16.3538C74.6654 16.5099 74.6264 16.627 74.5093 16.7441 74.3922 16.8612 74.2751 16.9002 74.119 16.9002L74.0409 16.9002C73.8848 16.9002 73.7287 16.8612 73.6506 16.7831 73.5335 16.7051 73.4945 16.588 73.4945 16.4709L73.4945 16.3928C73.4945 16.2757 73.5335 16.1977 73.6116 16.1196 73.6896 16.0415 73.7677 16.0025 73.8848 15.9635 74.0019 15.9245 74.119 15.8854 74.2751 15.8854 74.4312 15.8464 74.5483 15.8464 74.6654 15.8074L74.6654 16.3538ZM77.7098 16.9783C77.6708 16.9393 77.6317 16.9002 77.5537 16.9002 77.4366 16.9002 77.3585 16.8612 77.2804 16.7831 77.2024 16.7051 77.1634 16.627 77.1634 16.5099L77.1634 14.6755 77.5146 14.6755C77.5927 14.6755 77.6708 14.6364 77.7098 14.5974 77.7488 14.5584 77.7878 14.4803 77.7878 14.4413 77.7878 14.4023 77.7488 14.3242 77.7098 14.2852 77.6708 14.2461 77.5927 14.2071 77.5146 14.2071L77.1634 14.2071 77.1634 13.0752C77.1634 12.9972 77.1243 12.9191 77.0853 12.8801 77.0463 12.841 76.9682 12.802 76.9292 12.802 76.8511 12.802 76.8121 12.841 76.7731 12.8801 76.734 12.9191 76.695 12.9972 76.695 13.0752L76.695 14.2071 76.4608 14.2071C76.3828 14.2071 76.3047 14.2461 76.2657 14.2852 76.2266 14.3242 76.1876 14.4023 76.1876 14.4413 76.1876 14.4803 76.2266 14.5584 76.2657 14.5974 76.3047 14.6364 76.3828 14.6755 76.4608 14.6755L76.695 14.6755 76.695 16.5099C76.695 16.627 76.734 16.7441 76.7731 16.8612 76.8121 16.9783 76.8901 17.0563 76.9682 17.1344 77.0463 17.2125 77.1243 17.2905 77.2414 17.3296 77.3585 17.3686 77.4756 17.4076 77.5537 17.4076 77.6317 17.4076 77.7098 17.3686 77.7488 17.3296 77.7878 17.2905 77.8269 17.2125 77.8269 17.1734 77.7488 17.0954 77.7488 17.0173 77.7098 16.9783M79.31 13.0752C79.31 12.9972 79.271 12.9191 79.232 12.8801 79.1929 12.841 79.1149 12.802 79.0759 12.802 78.9978 12.802 78.9588 12.841 78.9197 12.8801 78.8807 12.9191 78.8417 12.9972 78.8417 13.0752L78.8417 13.2314C78.8417 13.3094 78.8807 13.3875 78.9197 13.4265 78.9588 13.4655 79.0368 13.5046 79.0759 13.5046 79.1539 13.5046 79.1929 13.4655 79.232 13.4265 79.271 13.3875 79.31 13.3094 79.31 13.2314L79.31 13.0752ZM79.31 14.4023C79.31 14.3242 79.271 14.2461 79.232 14.2071 79.1929 14.1681 79.1149 14.1291 79.0759 14.1291 78.9978 14.1291 78.9588 14.1681 78.9197 14.2071 78.8807 14.2461 78.8417 14.3242 78.8417 14.4023L78.8417 17.1344C78.8417 17.2125 78.8807 17.2905 78.9197 17.3296 78.9588 17.3686 79.0368 17.4076 79.0759 17.4076 79.1539 17.4076 79.1929 17.3686 79.232 17.3296 79.271 17.2905 79.31 17.2125 79.31 17.1344L79.31 14.4023ZM82.6276 15.2219C82.6276 15.0658 82.5886 14.9487 82.5496 14.8316 82.5105 14.7145 82.4325 14.5974 82.3154 14.4803 82.2373 14.4023 82.1202 14.3242 81.9641 14.2461 81.808 14.1681 81.6909 14.1681 81.5738 14.1681L81.4958 14.1681C81.3396 14.1681 81.2225 14.2071 81.1054 14.2461 80.9883 14.2852 80.8713 14.3632 80.7542 14.4803 80.6761 14.5584 80.598 14.6755 80.52 14.8316 80.481 14.9487 80.4419 15.1048 80.4419 15.2219L80.4419 16.3538C80.4419 16.5099 80.481 16.627 80.52 16.7441 80.559 16.8612 80.6371 16.9783 80.7542 17.0563 80.8322 17.1344 80.9493 17.2125 81.1054 17.2905 81.2225 17.3296 81.3787 17.3686 81.4958 17.3686L81.5738 17.3686C81.7299 17.3686 81.847 17.3296 81.9641 17.2905 82.0812 17.2515 82.1983 17.1734 82.3154 17.0563 82.3935 16.9783 82.4715 16.8612 82.5496 16.7441 82.5886 16.627 82.6276 16.4709 82.6276 16.3538L82.6276 15.2219ZM82.1202 16.3538C82.1202 16.5099 82.0812 16.627 81.9641 16.7441 81.847 16.8612 81.7299 16.9002 81.5738 16.9002L81.4958 16.9002C81.3396 16.9002 81.2225 16.8612 81.1054 16.7441 80.9883 16.627 80.9493 16.5099 80.9493 16.3538L80.9493 15.2219C80.9493 15.0658 80.9883 14.9487 81.1054 14.8316 81.2225 14.7145 81.3396 14.6755 81.4958 14.6755L81.5738 14.6755C81.7299 14.6755 81.847 14.7145 81.9641 14.8316 82.0812 14.9487 82.1202 15.0658 82.1202 15.2219L82.1202 16.3538ZM85.9062 15.2219C85.9062 15.0268 85.8672 14.8706 85.8281 14.7535 85.7891 14.6364 85.7111 14.5194 85.594 14.4413 85.5159 14.3632 85.3988 14.2852 85.2427 14.2461 85.1256 14.2071 84.9695 14.1681 84.8524 14.1681L84.7743 14.1681C84.6572 14.1681 84.5401 14.1681 84.4621 14.2071 84.345 14.2461 84.2669 14.2852 84.2279 14.3632 84.2279 14.2852 84.1889 14.2461 84.1498 14.2071 84.1108 14.1681 84.0327 14.1681 83.9937 14.1681 83.9156 14.1681 83.8766 14.2071 83.8376 14.2461 83.7985 14.2852 83.7595 14.3632 83.7595 14.4413L83.7595 17.1734C83.7595 17.2515 83.7985 17.3296 83.8376 17.3686 83.8766 17.4076 83.9547 17.4466 83.9937 17.4466 84.0718 17.4466 84.1108 17.4076 84.1498 17.3686 84.1889 17.3296 84.2279 17.2515 84.2279 17.1734L84.2279 15.2219C84.2279 15.0658 84.2669 14.9487 84.384 14.8316 84.5011 14.7145 84.6182 14.6755 84.7743 14.6755L84.8133 14.6755C84.9695 14.6755 85.0866 14.7145 85.2037 14.8316 85.3207 14.9487 85.3598 15.0658 85.3598 15.2219L85.3598 17.1344C85.3598 17.2125 85.3988 17.2905 85.4378 17.3296 85.4769 17.3686 85.5549 17.4076 85.594 17.4076 85.672 17.4076 85.7111 17.3686 85.7501 17.3296 85.7891 17.2905 85.8281 17.2125 85.8281 17.1344L85.8281 15.2219ZM89.4189 16.9783C89.3799 16.9393 89.3409 16.9002 89.2628 16.9002 89.1457 16.8612 89.1067 16.8222 89.1067 16.666L89.1067 15.1438C89.1067 14.9877 89.0677 14.8706 89.0286 14.7535 88.9896 14.6364 88.9116 14.5194 88.7945 14.4413 88.7164 14.3632 88.5993 14.2852 88.4822 14.2071 88.3651 14.1681 88.209 14.1291 88.0919 14.1291L88.0529 14.1291C87.9748 14.1291 87.8968 14.1291 87.7797 14.1681 87.7016 14.1681 87.5845 14.2071 87.5064 14.2461 87.4284 14.2852 87.3503 14.3632 87.2723 14.4413 87.1942 14.5194 87.1161 14.5974 87.0771 14.7145 87.0771 14.7535 87.0381 14.7926 87.0381 14.8316 87.0381 14.9097 87.0771 14.9487 87.1161 14.9877 87.1552 15.0268 87.2332 15.0658 87.2723 15.0658 87.3113 15.0658 87.3503 15.0658 87.3894 15.0268 87.4284 14.9877 87.4674 14.9877 87.4674 14.9097 87.5455 14.7926 87.5845 14.7145 87.6626 14.6755 87.7406 14.6364 87.8577 14.5974 87.9748 14.5974L88.0138 14.5974C88.17 14.5974 88.2871 14.6364 88.3651 14.7145 88.4822 14.7926 88.5212 14.9487 88.5212 15.1048 88.5212 15.1048 88.5212 15.1438 88.5212 15.1829 88.5212 15.2219 88.5212 15.2219 88.5212 15.2219 88.4822 15.2609 88.4432 15.3 88.3261 15.3 88.248 15.3 88.1309 15.339 88.0138 15.378 87.8968 15.4171 87.7797 15.4171 87.6235 15.4561 87.5064 15.4951 87.3503 15.5342 87.2332 15.6122 87.1161 15.6903 87.0381 15.7683 86.96 15.8854 86.882 16.0025 86.8429 16.1196 86.8429 16.3148L86.8429 16.3928C86.8429 16.5489 86.882 16.666 86.921 16.7831 86.9991 16.9002 87.0771 17.0173 87.1552 17.0563 87.2332 17.1344 87.3503 17.2125 87.5064 17.2515 87.6235 17.2905 87.7797 17.3296 87.8968 17.3296L87.9748 17.3296C88.248 17.3296 88.4822 17.2515 88.6774 17.0954 88.7164 17.1734 88.7945 17.2125 88.8335 17.2515 88.9116 17.2905 88.9896 17.3296 89.1067 17.3296 89.1067 17.3296 89.1457 17.3296 89.1457 17.3296 89.2238 17.3296 89.3019 17.2905 89.3409 17.2515 89.3799 17.2125 89.4189 17.1344 89.4189 17.0954 89.458 17.0954 89.458 17.0173 89.4189 16.9783M88.5993 16.3538C88.5993 16.5099 88.5603 16.627 88.4432 16.7441 88.3261 16.8612 88.209 16.9002 88.0529 16.9002L87.9748 16.9002C87.8187 16.9002 87.6626 16.8612 87.5845 16.7831 87.4674 16.7051 87.4284 16.588 87.4284 16.4709L87.4284 16.3928C87.4284 16.2757 87.4674 16.1977 87.5455 16.1196 87.6235 16.0415 87.7016 16.0025 87.8187 15.9635 87.9358 15.9245 88.0529 15.8854 88.209 15.8854 88.3651 15.8464 88.4822 15.8464 88.5993 15.8074L88.5993 16.3538ZM91.4876 16.9783C91.4485 16.9393 91.3705 16.9002 91.2924 16.9002 91.1753 16.9002 91.0973 16.8612 91.0582 16.7831 90.9802 16.7051 90.9411 16.627 90.9411 16.5489L90.9411 13.0752C90.9411 12.9972 90.9021 12.9191 90.8631 12.8801 90.824 12.841 90.746 12.802 90.707 12.802 90.6289 12.802 90.5899 12.841 90.5508 12.8801 90.5118 12.9191 90.4728 12.9972 90.4728 13.0752L90.4728 16.5489C90.4728 16.666 90.5118 16.7831 90.5508 16.9002 90.5899 17.0173 90.6679 17.0954 90.746 17.1734 90.824 17.2515 90.9021 17.3296 91.0192 17.3686 91.1363 17.4076 91.2534 17.4466 91.3314 17.4466 91.4095 17.4466 91.4876 17.4076 91.5266 17.3686 91.5656 17.3296 91.6047 17.2515 91.6047 17.2125 91.5656 17.0954 91.5266 17.0173 91.4876 16.9783M94.61 15.2219C94.61 15.0658 94.571 14.9487 94.5319 14.7926 94.4929 14.6755 94.4149 14.5584 94.2978 14.4413 94.2197 14.3632 94.1026 14.2852 93.9465 14.2071 93.8294 14.1681 93.6733 14.1291 93.5562 14.1291L93.4781 14.1291C93.322 14.1291 93.2049 14.1681 93.0878 14.2071 92.9707 14.2461 92.8536 14.3242 92.7365 14.4413 92.6585 14.5194 92.5804 14.6364 92.5024 14.7926 92.4633 14.9097 92.4243 15.0658 92.4243 15.1829L92.4243 16.3148C92.4243 16.4709 92.4633 16.588 92.5024 16.7051 92.5414 16.8222 92.6195 16.9393 92.7365 17.0173 92.8146 17.0954 92.9317 17.1734 93.0878 17.2515 93.2049 17.2905 93.361 17.3296 93.4781 17.3296L93.5562 17.3296C93.7904 17.3296 93.9855 17.2905 94.1416 17.1734 94.2978 17.0563 94.4149 16.9002 94.4929 16.7441 94.4929 16.7051 94.5319 16.666 94.5319 16.627 94.5319 16.5489 94.4929 16.5099 94.4539 16.4319 94.4149 16.3928 94.3368 16.3538 94.2587 16.3538 94.2197 16.3538 94.1807 16.3538 94.1416 16.3928 94.1026 16.4319 94.0636 16.4709 94.0636 16.5099 94.0245 16.588 93.9465 16.666 93.8684 16.7441 93.7904 16.8222 93.6733 16.8612 93.5562 16.8612L93.4781 16.8612C93.322 16.8612 93.2049 16.8222 93.0878 16.7051 92.9707 16.588 92.9317 16.4709 92.9317 16.3148L92.9317 16.0025 94.3368 16.0025C94.4149 16.0025 94.4539 15.9635 94.4929 15.9245 94.5319 15.8854 94.571 15.8074 94.571 15.7683L94.571 15.2219ZM94.1026 15.5732 92.9317 15.5732 92.9317 15.2219C92.9317 15.0658 92.9707 14.9487 93.0878 14.8316 93.2049 14.7145 93.322 14.6755 93.4781 14.6755L93.5562 14.6755C93.7123 14.6755 93.8294 14.7145 93.9465 14.8316 94.0636 14.9487 94.1026 15.0658 94.1026 15.2219L94.1026 15.5732Z" fill="#D40F14" transform="matrix(1 0 0 1.01963 620 55.064)"/><path d="M49.0223 6.98646C49.0223 6.83034 48.9833 6.67422 48.9053 6.5181 48.8272 6.36198 48.7491 6.24488 48.632 6.12779 48.5149 6.0107 48.3979 5.93264 48.2417 5.85458 48.0856 5.77652 47.9295 5.73749 47.7734 5.73749L46.7195 5.73749C46.6415 5.73749 46.6025 5.77652 46.5634 5.81555 46.5244 5.85458 46.4854 5.93264 46.4854 5.97167L46.4854 9.99182C46.4854 10.0699 46.5244 10.1089 46.5634 10.1479 46.6025 10.187 46.6805 10.226 46.7195 10.226L47.7734 10.226C47.9295 10.226 48.0856 10.187 48.2417 10.1089 48.3979 10.0308 48.5149 9.95279 48.632 9.83569 48.7491 9.7186 48.8272 9.60151 48.9053 9.44539 48.9833 9.28927 49.0223 9.13314 49.0223 8.97702L49.0223 6.98646ZM48.5149 9.01605C48.5149 9.13314 48.5149 9.21121 48.4369 9.28927 48.3979 9.36733 48.3588 9.44539 48.2808 9.52345 48.2027 9.60151 48.1246 9.64054 48.0466 9.67957 47.9685 9.7186 47.8514 9.75763 47.7734 9.75763L46.9537 9.75763 46.9537 6.24488 47.7734 6.24488C47.8905 6.24488 47.9685 6.24488 48.0466 6.32295 48.1246 6.36198 48.2027 6.40101 48.2808 6.47907 48.3588 6.55713 48.3979 6.63519 48.4369 6.71325 48.4759 6.79131 48.5149 6.9084 48.5149 6.98646L48.5149 9.01605ZM52.3399 8.11835C52.3399 7.96223 52.3009 7.84514 52.2619 7.68901 52.2229 7.57192 52.1448 7.45483 52.0277 7.33774 51.9496 7.25968 51.8325 7.18162 51.6764 7.10356 51.5593 7.06453 51.4032 7.0255 51.2861 7.0255L51.2081 7.0255C51.0519 7.0255 50.9348 7.06453 50.8177 7.10356 50.7007 7.14259 50.5836 7.22065 50.4665 7.33774 50.3884 7.4158 50.3104 7.53289 50.2323 7.68901 50.1933 7.80611 50.1542 7.96223 50.1542 8.07932L50.1542 9.21121C50.1542 9.36733 50.1933 9.48442 50.2323 9.64054 50.2713 9.75763 50.3494 9.87472 50.4665 9.95279 50.5445 10.0308 50.6616 10.1089 50.8177 10.187 50.9739 10.265 51.091 10.265 51.2081 10.265L51.2861 10.265C51.5203 10.265 51.7155 10.226 51.8716 10.1089 52.0277 9.99182 52.1448 9.83569 52.2229 9.67957 52.2229 9.64054 52.2619 9.60151 52.2619 9.56248 52.2619 9.48442 52.2229 9.44539 52.1838 9.36733 52.1448 9.3283 52.0667 9.28927 51.9887 9.28927 51.9496 9.28927 51.9106 9.28927 51.8716 9.3283 51.8325 9.36733 51.7935 9.40636 51.7935 9.44539 51.7545 9.52345 51.6764 9.60151 51.5984 9.67957 51.5203 9.75763 51.4032 9.75763 51.2861 9.75763L51.2081 9.75763C51.0519 9.75763 50.9348 9.7186 50.8177 9.60151 50.7007 9.48442 50.6616 9.36733 50.6616 9.21121L50.6616 8.89896 52.0667 8.89896C52.1448 8.89896 52.1838 8.85993 52.2619 8.8209 52.3009 8.78187 52.3399 8.70381 52.3399 8.66478L52.3399 8.11835ZM51.8325 8.43059 50.6616 8.43059 50.6616 8.11835C50.6616 7.96223 50.7007 7.84514 50.8177 7.72804 50.9348 7.61095 51.0519 7.57192 51.2081 7.57192L51.2861 7.57192C51.4422 7.57192 51.5593 7.61095 51.6764 7.72804 51.7935 7.84514 51.8325 7.96223 51.8325 8.11835L51.8325 8.43059ZM55.5404 7.29871C55.5404 7.22065 55.5014 7.14259 55.4624 7.10356 55.4234 7.06453 55.3453 7.0255 55.3063 7.0255 55.2282 7.0255 55.1892 7.06453 55.1501 7.10356 55.1111 7.14259 55.0721 7.22065 55.0721 7.29871L55.0721 9.21121C55.0721 9.36733 55.0331 9.48442 54.916 9.60151 54.7989 9.7186 54.6818 9.75763 54.5257 9.75763L54.4476 9.75763C54.2915 9.75763 54.1744 9.7186 54.0573 9.60151 53.9402 9.48442 53.9012 9.36733 53.9012 9.21121L53.9012 7.29871C53.9012 7.22065 53.8621 7.14259 53.8231 7.10356 53.7841 7.06453 53.706 7.0255 53.667 7.0255 53.5889 7.0255 53.5499 7.06453 53.5109 7.10356 53.4718 7.14259 53.4328 7.22065 53.4328 7.29871L53.4328 9.21121C53.4328 9.40636 53.4718 9.56248 53.5109 9.67957 53.5499 9.79666 53.6279 9.91375 53.745 9.99182 53.8231 10.0699 53.9402 10.1479 54.0963 10.187 54.2134 10.226 54.3695 10.265 54.4866 10.265L54.5647 10.265C54.6818 10.265 54.7989 10.265 54.8769 10.226 54.994 10.187 55.0721 10.1479 55.1111 10.0699 55.1111 10.1479 55.1501 10.187 55.1892 10.226 55.2282 10.265 55.3063 10.265 55.3453 10.265 55.4234 10.265 55.4624 10.226 55.5014 10.187 55.5404 10.1479 55.5795 10.0699 55.5795 9.99182L55.5795 7.29871ZM58.0384 9.87472C57.9994 9.83569 57.9603 9.79666 57.8823 9.79666 57.7652 9.79666 57.6871 9.75763 57.6091 9.67957 57.531 9.60151 57.492 9.52345 57.492 9.40636L57.492 7.57192 57.8432 7.57192C57.9213 7.57192 57.9994 7.53289 58.0384 7.49386 58.0774 7.45483 58.1165 7.37677 58.1165 7.33774 58.1165 7.25968 58.0774 7.22065 58.0384 7.18162 57.9994 7.14259 57.9213 7.10356 57.8432 7.10356L57.492 7.10356 57.492 5.97167C57.492 5.89361 57.4529 5.81555 57.4139 5.77652 57.3749 5.73749 57.2968 5.69846 57.2578 5.69846 57.2188 5.69846 57.1407 5.73749 57.1017 5.77652 57.0626 5.81555 57.0236 5.89361 57.0236 5.97167L57.0236 7.10356 56.7894 7.10356C56.7114 7.10356 56.6333 7.14259 56.5943 7.18162 56.5552 7.22065 56.5162 7.29871 56.5162 7.33774 56.5162 7.4158 56.5552 7.45483 56.5943 7.49386 56.6333 7.53289 56.7114 7.57192 56.7894 7.57192L57.0236 7.57192 57.0236 9.40636C57.0236 9.52345 57.0626 9.64054 57.1017 9.75763 57.1407 9.87472 57.2188 9.95279 57.2968 10.0308 57.3749 10.1089 57.4529 10.187 57.57 10.226 57.6871 10.265 57.8042 10.3041 57.9213 10.3041 57.9994 10.3041 58.0774 10.265 58.1165 10.226 58.1555 10.187 58.1945 10.1089 58.1945 10.0699 58.1165 9.95279 58.0774 9.91375 58.0384 9.87472M61.2779 9.3283C61.2779 9.13314 61.2389 8.93799 61.1608 8.8209 61.0828 8.70381 60.9657 8.58672 60.8486 8.54769 60.7315 8.46963 60.5754 8.43059 60.4583 8.39156 60.3412 8.35253 60.1851 8.3135 60.068 8.3135 59.9509 8.27447 59.8338 8.23544 59.7557 8.19641 59.6777 8.15738 59.6387 8.04029 59.6387 7.96223L59.6387 7.9232C59.6387 7.84514 59.6777 7.72804 59.7948 7.68901 59.8728 7.61095 60.029 7.57192 60.2241 7.57192L60.2631 7.57192C60.4193 7.57192 60.5364 7.61095 60.6144 7.64998 60.6925 7.68901 60.7705 7.72804 60.8486 7.76708 60.8876 7.80611 60.9657 7.80611 61.0047 7.80611 61.0828 7.80611 61.1218 7.76708 61.1608 7.72804 61.1999 7.68901 61.2389 7.61095 61.2389 7.57192 61.2389 7.49386 61.1999 7.4158 61.1608 7.37677 61.1218 7.33774 61.0828 7.33774 61.0437 7.29871 61.0047 7.25968 60.9267 7.22065 60.8486 7.22065 60.7705 7.18162 60.6925 7.18162 60.6144 7.14259 60.5364 7.10356 60.4193 7.10356 60.3022 7.10356L60.2631 7.10356C60.146 7.10356 60.029 7.10356 59.9119 7.14259 59.7948 7.18162 59.6777 7.22065 59.5606 7.29871 59.4435 7.37677 59.3654 7.45483 59.2874 7.57192 59.2093 7.68901 59.1703 7.80611 59.1703 7.96223 59.1703 8.15738 59.2093 8.3135 59.2874 8.43059 59.3654 8.54769 59.4825 8.62575 59.5996 8.70381 59.7167 8.78187 59.8728 8.8209 59.9899 8.8209 60.146 8.85993 60.2631 8.89896 60.3802 8.93799 60.4973 8.97702 60.6144 9.01605 60.6925 9.09411 60.7705 9.17217 60.8096 9.25024 60.8096 9.40636L60.8096 9.40636C60.8096 9.52345 60.7315 9.60151 60.6534 9.7186 60.5364 9.79666 60.3802 9.83569 60.1851 9.83569L60.107 9.83569C59.9899 9.83569 59.8728 9.79666 59.7167 9.7186 59.5996 9.64054 59.4825 9.52345 59.4045 9.44539 59.3654 9.40636 59.3264 9.36733 59.2874 9.36733 59.2483 9.36733 59.2093 9.3283 59.1703 9.3283 59.0922 9.3283 59.0532 9.36733 58.9751 9.40636 58.9361 9.44539 58.8971 9.52345 58.8971 9.60151 58.8971 9.60151 58.8971 9.64054 58.9361 9.7186 58.9751 9.83569 59.0532 9.91375 59.1313 9.99182 59.2093 10.0699 59.2874 10.1479 59.4045 10.187 59.5216 10.226 59.5996 10.265 59.7167 10.3041 59.8338 10.3431 59.9509 10.3431 60.029 10.3431L60.068 10.3431C60.1851 10.3431 60.3412 10.3431 60.4583 10.3041 60.5754 10.265 60.7315 10.226 60.8096 10.1479 60.9267 10.0699 61.0047 9.99182 61.0828 9.87472 61.2389 9.64054 61.2779 9.52345 61.2779 9.3283L61.2779 9.3283ZM64.3613 9.01605C64.3223 8.97702 64.2443 8.93799 64.2052 8.93799 64.1272 8.93799 64.0881 8.97702 64.0491 9.01605 64.0101 9.05508 63.971 9.13314 63.971 9.21121 63.971 9.36733 63.893 9.48442 63.8149 9.60151 63.6978 9.7186 63.5807 9.75763 63.4246 9.75763L63.3856 9.75763C63.2295 9.75763 63.1124 9.7186 62.9953 9.60151 62.8782 9.48442 62.8392 9.36733 62.8392 9.21121L62.8392 8.07932C62.8392 7.9232 62.8782 7.80611 62.9953 7.68901 63.1124 7.57192 63.2295 7.53289 63.3856 7.53289L63.4636 7.53289C63.6198 7.53289 63.7369 7.57192 63.854 7.68901 63.971 7.80611 64.0101 7.9232 64.0101 8.07932 64.0101 8.15738 64.0491 8.23544 64.0881 8.27447 64.1272 8.3135 64.2052 8.35253 64.2443 8.35253 64.3223 8.35253 64.3613 8.3135 64.4004 8.27447 64.4394 8.23544 64.4784 8.15738 64.4784 8.07932 64.4784 7.9232 64.4394 7.80611 64.4004 7.68901 64.3613 7.57192 64.2833 7.45483 64.1662 7.33774 64.0881 7.25968 63.971 7.18162 63.8149 7.10356 63.6978 7.06453 63.5417 7.0255 63.4246 7.0255L63.3466 7.0255C63.1904 7.0255 63.0733 7.06453 62.9562 7.10356 62.8392 7.14259 62.7221 7.22065 62.605 7.33774 62.5269 7.4158 62.4488 7.53289 62.3708 7.68901 62.3318 7.80611 62.2927 7.96223 62.2927 8.11835L62.2927 9.25024C62.2927 9.40636 62.3318 9.52345 62.3708 9.67957 62.4098 9.79666 62.4879 9.91375 62.605 9.99182 62.683 10.0699 62.8001 10.1479 62.9562 10.226 63.0733 10.265 63.2295 10.3041 63.3466 10.3041L63.4246 10.3041C63.5807 10.3041 63.6978 10.265 63.8149 10.226 63.932 10.187 64.0491 10.1089 64.1662 9.99182 64.2443 9.91375 64.3223 9.79666 64.4004 9.67957 64.4394 9.56248 64.4784 9.40636 64.4784 9.28927 64.4004 9.13314 64.4004 9.05508 64.3613 9.01605M67.6789 8.11835C67.6789 7.96223 67.6399 7.84514 67.6009 7.72804 67.5619 7.61095 67.4838 7.49386 67.3667 7.37677 67.2886 7.29871 67.1715 7.22065 67.0154 7.14259 66.8983 7.10356 66.7422 7.06453 66.6251 7.06453L66.5861 7.06453C66.469 7.06453 66.3519 7.06453 66.2738 7.10356 66.1568 7.14259 66.0787 7.18162 66.0397 7.25968L66.0397 5.97167C66.0397 5.89361 66.0006 5.81555 65.9616 5.77652 65.9226 5.73749 65.8445 5.69846 65.8055 5.69846 65.7274 5.69846 65.6884 5.73749 65.6494 5.77652 65.6103 5.81555 65.5713 5.89361 65.5713 5.97167L65.5713 10.0308C65.5713 10.1089 65.6103 10.187 65.6494 10.226 65.6884 10.265 65.7664 10.3041 65.8055 10.3041 65.8835 10.3041 65.9226 10.3041 65.9616 10.226 66.0006 10.187 66.0397 10.1089 66.0397 10.0308L66.0397 8.07932C66.0397 8.00126 66.0397 7.9232 66.0787 7.84514 66.1177 7.76708 66.1568 7.72804 66.1958 7.68901 66.2348 7.64998 66.3129 7.61095 66.3909 7.57192 66.469 7.53289 66.5471 7.53289 66.6251 7.53289 66.7032 7.53289 66.7812 7.53289 66.8203 7.57192 66.8983 7.61095 66.9374 7.61095 67.0154 7.68901 67.0545 7.72804 67.1325 7.80611 67.1325 7.84514 67.1715 7.9232 67.1715 8.00126 67.1715 8.07932L67.1715 9.99182C67.1715 10.0699 67.2106 10.1479 67.2496 10.187 67.2886 10.226 67.3667 10.265 67.4057 10.265 67.4838 10.265 67.5228 10.265 67.5619 10.187 67.6009 10.1479 67.6399 10.0699 67.6399 9.99182L67.6399 8.11835ZM70.9185 8.11835C70.9185 7.96223 70.8794 7.84514 70.8404 7.68901 70.8014 7.57192 70.7233 7.45483 70.6062 7.33774 70.5282 7.25968 70.4111 7.18162 70.255 7.10356 70.1379 7.06453 69.9817 7.0255 69.8646 7.0255L69.7866 7.0255C69.6305 7.0255 69.5134 7.06453 69.3963 7.10356 69.2792 7.14259 69.1621 7.22065 69.045 7.33774 68.9669 7.4158 68.8889 7.53289 68.8108 7.68901 68.7718 7.80611 68.7328 7.96223 68.7328 8.07932L68.7328 9.21121C68.7328 9.36733 68.7718 9.48442 68.8108 9.64054 68.8499 9.75763 68.9279 9.87472 69.045 9.95279 69.1231 10.0308 69.2402 10.1089 69.3963 10.187 69.5524 10.265 69.6695 10.265 69.7866 10.265L69.8646 10.265C70.0988 10.265 70.294 10.226 70.4501 10.1089 70.6062 9.99182 70.7233 9.83569 70.8014 9.67957 70.8014 9.64054 70.8404 9.60151 70.8404 9.56248 70.8404 9.48442 70.8014 9.44539 70.7624 9.36733 70.7233 9.3283 70.6453 9.28927 70.5672 9.28927 70.5282 9.28927 70.4891 9.28927 70.4501 9.3283 70.4111 9.36733 70.372 9.40636 70.372 9.44539 70.333 9.52345 70.255 9.60151 70.1769 9.67957 70.0988 9.75763 69.9817 9.75763 69.8646 9.75763L69.7866 9.75763C69.6305 9.75763 69.5134 9.7186 69.3963 9.60151 69.2792 9.48442 69.2402 9.36733 69.2402 9.21121L69.2402 8.89896 70.6453 8.89896C70.7233 8.89896 70.7624 8.85993 70.8404 8.8209 70.8794 8.78187 70.9185 8.70381 70.9185 8.66478L70.9185 8.11835ZM70.4111 8.43059 69.2402 8.43059 69.2402 8.11835C69.2402 7.96223 69.2792 7.84514 69.3963 7.72804 69.5134 7.61095 69.6305 7.57192 69.7866 7.57192L69.8646 7.57192C70.0208 7.57192 70.1379 7.61095 70.255 7.72804 70.372 7.84514 70.4111 7.96223 70.4111 8.11835L70.4111 8.43059ZM76.656 8.04029C76.656 7.96223 76.6169 7.9232 76.5779 7.88417 76.5389 7.84514 76.4608 7.80611 76.4218 7.80611L75.485 7.80611C75.407 7.80611 75.3289 7.84514 75.2899 7.88417 75.2509 7.9232 75.2118 8.00126 75.2118 8.04029 75.2118 8.11835 75.2509 8.15738 75.2899 8.19641 75.3289 8.23544 75.407 8.27447 75.485 8.27447L76.1486 8.27447 76.1486 9.01605C76.1486 9.13314 76.1486 9.21121 76.1095 9.28927 76.0705 9.36733 76.0315 9.44539 75.9534 9.52345 75.8754 9.60151 75.7973 9.64054 75.7192 9.67957 75.6412 9.7186 75.5241 9.75763 75.446 9.75763L75.368 9.75763C75.2509 9.75763 75.1728 9.7186 75.0947 9.67957 75.0167 9.64054 74.9386 9.60151 74.8606 9.52345 74.7825 9.44539 74.7435 9.36733 74.7044 9.28927 74.6654 9.21121 74.6264 9.09411 74.6264 9.01605L74.6264 6.9084C74.6264 6.79131 74.6654 6.71325 74.7044 6.63519 74.7435 6.55713 74.7825 6.47907 74.8606 6.40101 74.9386 6.32295 75.0167 6.28392 75.0947 6.24488 75.1728 6.20585 75.2899 6.20585 75.368 6.20585L75.446 6.20585C75.6412 6.20585 75.8363 6.28392 75.9534 6.40101 76.0705 6.5181 76.1486 6.67422 76.1876 6.86937 76.1876 6.94743 76.2266 6.98646 76.2657 7.0255 76.3047 7.06453 76.3828 7.06453 76.4218 7.06453 76.4998 7.06453 76.5389 7.0255 76.5779 6.98646 76.6169 6.94743 76.656 6.86937 76.656 6.79131L76.656 6.75228C76.6169 6.59616 76.5779 6.44004 76.4998 6.32295 76.4218 6.20585 76.3437 6.08876 76.2266 5.97167 76.1095 5.89361 75.9924 5.81555 75.8363 5.73749 75.6802 5.69846 75.5631 5.65943 75.407 5.65943L75.3289 5.65943C75.1728 5.65943 75.0167 5.69846 74.8606 5.73749 74.7044 5.81555 74.5873 5.89361 74.4703 6.0107 74.3532 6.12779 74.2751 6.24488 74.197 6.40101 74.119 6.55713 74.119 6.71325 74.119 6.86937L74.119 8.97702C74.119 9.13314 74.158 9.3283 74.197 9.44539 74.2751 9.60151 74.3532 9.7186 74.4703 9.83569 74.5873 9.95279 74.7044 10.0308 74.8606 10.1089 75.0167 10.187 75.1728 10.187 75.3289 10.187L75.407 10.187C75.5631 10.187 75.7192 10.1479 75.8754 10.1089 76.0315 10.0308 76.1486 9.95279 76.2657 9.83569 76.3828 9.7186 76.4608 9.60151 76.5389 9.44539 76.6169 9.28927 76.6169 9.13314 76.6169 8.97702L76.6169 8.04029ZM79.9736 8.11835C79.9736 7.96223 79.9345 7.84514 79.8955 7.68901 79.8565 7.57192 79.7784 7.45483 79.6613 7.33774 79.5833 7.25968 79.4662 7.18162 79.31 7.10356 79.1929 7.06453 79.0368 7.0255 78.9197 7.0255L78.8417 7.0255C78.6856 7.0255 78.5685 7.06453 78.4514 7.10356 78.3343 7.14259 78.2172 7.22065 78.1001 7.33774 78.022 7.4158 77.944 7.53289 77.8659 7.68901 77.8269 7.80611 77.7878 7.96223 77.7878 8.07932L77.7878 9.21121C77.7878 9.36733 77.8269 9.48442 77.8659 9.64054 77.9049 9.75763 77.983 9.87472 78.1001 9.95279 78.1782 10.0308 78.2952 10.1089 78.4514 10.187 78.5685 10.226 78.7246 10.265 78.8417 10.265L78.9197 10.265C79.1539 10.265 79.3491 10.226 79.5052 10.1089 79.6613 9.99182 79.7784 9.83569 79.8565 9.67957 79.8565 9.64054 79.8955 9.60151 79.8955 9.56248 79.8955 9.48442 79.8565 9.44539 79.8174 9.36733 79.7784 9.3283 79.7003 9.28927 79.6613 9.28927 79.6223 9.28927 79.5833 9.28927 79.5442 9.3283 79.5052 9.36733 79.4662 9.40636 79.4662 9.44539 79.4271 9.52345 79.3491 9.60151 79.271 9.67957 79.1929 9.75763 79.0759 9.75763 78.9588 9.75763L78.8417 9.75763C78.6856 9.75763 78.5685 9.7186 78.4514 9.60151 78.3343 9.48442 78.2952 9.36733 78.2952 9.21121L78.2952 8.89896 79.7003 8.89896C79.7784 8.89896 79.8174 8.85993 79.8955 8.8209 79.9345 8.78187 79.9736 8.70381 79.9736 8.66478L79.9736 8.11835ZM79.4662 8.43059 78.2952 8.43059 78.2952 8.11835C78.2952 7.96223 78.3343 7.84514 78.4514 7.72804 78.5685 7.61095 78.6856 7.57192 78.8417 7.57192L78.9197 7.57192C79.0759 7.57192 79.1929 7.61095 79.31 7.72804 79.4271 7.84514 79.4662 7.96223 79.4662 8.11835L79.4662 8.43059ZM83.2131 9.3283C83.2131 9.13314 83.1741 8.93799 83.096 8.8209 83.0179 8.70381 82.9008 8.58672 82.7838 8.54769 82.6667 8.46963 82.5105 8.43059 82.3935 8.39156 82.2373 8.35253 82.1202 8.3135 82.0032 8.3135 81.8861 8.27447 81.769 8.23544 81.6909 8.19641 81.6128 8.15738 81.5738 8.04029 81.5738 7.96223L81.5738 7.9232C81.5738 7.84514 81.6128 7.72804 81.7299 7.68901 81.808 7.61095 81.9641 7.57192 82.1593 7.57192L82.1983 7.57192C82.3544 7.57192 82.4715 7.61095 82.5496 7.64998 82.6276 7.68901 82.7057 7.72804 82.7838 7.76708 82.8228 7.80611 82.9008 7.80611 82.9399 7.80611 83.0179 7.80611 83.057 7.76708 83.096 7.72804 83.135 7.68901 83.1741 7.61095 83.1741 7.57192 83.1741 7.49386 83.135 7.4158 83.096 7.37677 83.057 7.33774 83.0179 7.33774 82.9789 7.29871 82.9399 7.25968 82.8618 7.22065 82.7838 7.22065 82.7057 7.18162 82.6276 7.18162 82.5496 7.14259 82.4715 7.10356 82.3544 7.10356 82.2373 7.10356L82.1983 7.10356C82.0812 7.10356 81.9641 7.10356 81.847 7.14259 81.7299 7.18162 81.6128 7.22065 81.4958 7.29871 81.3787 7.37677 81.3006 7.45483 81.2225 7.57192 81.1445 7.68901 81.1054 7.80611 81.1054 7.96223 81.1054 8.15738 81.1445 8.3135 81.2225 8.43059 81.3006 8.54769 81.4177 8.62575 81.5348 8.70381 81.6519 8.78187 81.808 8.8209 81.9251 8.8209 82.0812 8.85993 82.1983 8.89896 82.3154 8.93799 82.4325 8.97702 82.5496 9.01605 82.6276 9.09411 82.7057 9.17217 82.7447 9.25024 82.7447 9.40636L82.7447 9.40636C82.7447 9.52345 82.6667 9.60151 82.5886 9.7186 82.4715 9.79666 82.3154 9.83569 82.1202 9.83569L82.0812 9.83569C81.9641 9.83569 81.847 9.79666 81.7299 9.7186 81.6128 9.64054 81.4958 9.52345 81.4177 9.44539 81.3787 9.40636 81.3396 9.36733 81.3006 9.36733 81.2616 9.36733 81.2225 9.3283 81.1835 9.3283 81.1054 9.3283 81.0664 9.36733 81.0274 9.40636 80.9883 9.44539 80.9493 9.52345 80.9493 9.60151 80.9493 9.60151 80.9493 9.64054 80.9883 9.7186 81.0274 9.83569 81.1054 9.91375 81.1835 9.99182 81.2616 10.0699 81.3396 10.1479 81.4567 10.187 81.5738 10.226 81.6519 10.265 81.769 10.3041 81.8861 10.3431 82.0032 10.3431 82.0812 10.3431L82.1202 10.3431C82.2373 10.3431 82.3935 10.3431 82.5105 10.3041 82.6276 10.265 82.7838 10.226 82.8618 10.1479 82.9789 10.0699 83.057 9.99182 83.135 9.87472 83.1741 9.64054 83.2131 9.52345 83.2131 9.3283L83.2131 9.3283ZM86.3746 8.11835C86.3746 7.96223 86.3355 7.84514 86.2965 7.68901 86.2575 7.57192 86.1794 7.45483 86.0623 7.33774 85.9843 7.25968 85.8672 7.18162 85.7111 7.10356 85.594 7.06453 85.4378 7.0255 85.3207 7.0255L85.2427 7.0255C85.0866 7.0255 84.9695 7.06453 84.8524 7.10356 84.7353 7.14259 84.6182 7.22065 84.5011 7.33774 84.423 7.4158 84.345 7.53289 84.2669 7.68901 84.2279 7.80611 84.1889 7.96223 84.1889 8.07932L84.1889 9.21121C84.1889 9.36733 84.2279 9.48442 84.2669 9.64054 84.3059 9.75763 84.384 9.87472 84.5011 9.95279 84.5792 10.0308 84.6963 10.1089 84.8524 10.187 84.9695 10.226 85.1256 10.265 85.2427 10.265L85.3207 10.265C85.5549 10.265 85.7501 10.226 85.9062 10.1089 86.0623 9.99182 86.1794 9.83569 86.2575 9.67957 86.2575 9.64054 86.2965 9.60151 86.2965 9.56248 86.2965 9.48442 86.2575 9.44539 86.2184 9.36733 86.1794 9.3283 86.1014 9.28927 86.0623 9.28927 86.0233 9.28927 85.9843 9.28927 85.9452 9.3283 85.9062 9.36733 85.8672 9.40636 85.8672 9.44539 85.8281 9.52345 85.7501 9.60151 85.672 9.67957 85.594 9.75763 85.4769 9.75763 85.3598 9.75763L85.2817 9.75763C85.1256 9.75763 85.0085 9.7186 84.8914 9.60151 84.7743 9.48442 84.7353 9.36733 84.7353 9.21121L84.7353 8.89896 86.1404 8.89896C86.2184 8.89896 86.2575 8.85993 86.3355 8.8209 86.3746 8.78187 86.4136 8.70381 86.4136 8.66478L86.4136 8.11835ZM85.8672 8.43059 84.6963 8.43059 84.6963 8.11835C84.6963 7.96223 84.7353 7.84514 84.8524 7.72804 84.9695 7.61095 85.0866 7.57192 85.2427 7.57192L85.3207 7.57192C85.4769 7.57192 85.594 7.61095 85.7111 7.72804 85.8281 7.84514 85.8672 7.96223 85.8672 8.11835L85.8672 8.43059ZM88.5212 9.87472C88.4822 9.83569 88.4042 9.79666 88.3261 9.79666 88.209 9.79666 88.1309 9.75763 88.0919 9.67957 88.0138 9.60151 87.9748 9.52345 87.9748 9.44539L87.9748 5.97167C87.9748 5.89361 87.9358 5.81555 87.8968 5.77652 87.8577 5.73749 87.7797 5.69846 87.7406 5.69846 87.6626 5.69846 87.6235 5.73749 87.5845 5.77652 87.5455 5.81555 87.5064 5.89361 87.5064 5.97167L87.5064 9.44539C87.5064 9.56248 87.5455 9.67957 87.5845 9.79666 87.6235 9.91375 87.7016 9.99182 87.7797 10.0699 87.8577 10.1479 87.9358 10.226 88.0529 10.265 88.17 10.3041 88.2871 10.3431 88.4042 10.3431 88.4822 10.3431 88.5603 10.3041 88.5993 10.265 88.6383 10.226 88.6774 10.1479 88.6774 10.1089 88.5603 9.95279 88.5603 9.91375 88.5212 9.87472M90.5508 9.87472C90.5118 9.83569 90.4337 9.79666 90.3557 9.79666 90.2386 9.79666 90.1605 9.75763 90.1215 9.67957 90.0434 9.60151 90.0044 9.52345 90.0044 9.44539L90.0044 5.97167C90.0044 5.89361 89.9654 5.81555 89.9263 5.77652 89.8873 5.73749 89.8093 5.69846 89.7702 5.69846 89.6922 5.69846 89.6531 5.73749 89.6141 5.77652 89.5751 5.81555 89.536 5.89361 89.536 5.97167L89.536 9.44539C89.536 9.56248 89.5751 9.67957 89.6141 9.79666 89.6531 9.91375 89.7312 9.99182 89.8093 10.0699 89.8873 10.1479 89.9654 10.226 90.0825 10.265 90.1996 10.3041 90.3166 10.3431 90.4337 10.3431 90.5118 10.3431 90.5899 10.3041 90.6289 10.265 90.6679 10.226 90.707 10.1479 90.707 10.1089 90.6289 9.95279 90.5899 9.91375 90.5508 9.87472M93.7513 9.3283C93.7513 9.13314 93.7123 8.93799 93.6342 8.8209 93.5562 8.70381 93.4391 8.58672 93.322 8.54769 93.2049 8.46963 93.0488 8.43059 92.9317 8.39156 92.7756 8.35253 92.6585 8.3135 92.5414 8.3135 92.4243 8.27447 92.3072 8.23544 92.2291 8.19641 92.1511 8.15738 92.1121 8.04029 92.1121 7.96223L92.1121 7.9232C92.1121 7.84514 92.1511 7.72804 92.2682 7.68901 92.3462 7.61095 92.5024 7.57192 92.6975 7.57192L92.7365 7.57192C92.8927 7.57192 93.0098 7.61095 93.0878 7.64998 93.1659 7.68901 93.2439 7.72804 93.322 7.76708 93.361 7.80611 93.4391 7.80611 93.4781 7.80611 93.5562 7.80611 93.5952 7.76708 93.6342 7.72804 93.6733 7.68901 93.7123 7.61095 93.7123 7.57192 93.7123 7.49386 93.6733 7.4158 93.6342 7.37677 93.5952 7.33774 93.5562 7.33774 93.5172 7.29871 93.4781 7.25968 93.4001 7.22065 93.322 7.22065 93.2439 7.18162 93.1659 7.18162 93.0878 7.14259 93.0098 7.10356 92.8927 7.10356 92.7756 7.10356L92.7365 7.10356C92.6195 7.10356 92.5024 7.10356 92.3853 7.14259 92.2682 7.18162 92.1511 7.22065 92.034 7.29871 91.9169 7.37677 91.8388 7.45483 91.7608 7.57192 91.6827 7.68901 91.6437 7.80611 91.6437 7.96223 91.6437 8.15738 91.6827 8.3135 91.7608 8.43059 91.8388 8.54769 91.9559 8.62575 92.073 8.70381 92.1901 8.78187 92.3462 8.8209 92.4633 8.8209 92.6195 8.85993 92.7365 8.89896 92.8536 8.93799 92.9707 8.97702 93.0878 9.01605 93.1659 9.09411 93.2439 9.17217 93.283 9.25024 93.283 9.40636L93.283 9.40636C93.283 9.52345 93.2049 9.60151 93.1268 9.7186 93.0098 9.79666 92.8536 9.83569 92.6585 9.83569L92.6195 9.83569C92.5024 9.83569 92.3853 9.79666 92.2682 9.7186 92.1511 9.64054 92.034 9.52345 91.9559 9.44539 91.9169 9.40636 91.8779 9.36733 91.8388 9.36733 91.7998 9.36733 91.7608 9.3283 91.7217 9.3283 91.6437 9.3283 91.6047 9.36733 91.5266 9.40636 91.4876 9.44539 91.4485 9.52345 91.4485 9.60151 91.4485 9.60151 91.4485 9.64054 91.4876 9.7186 91.5266 9.83569 91.6047 9.91375 91.6827 9.99182 91.7608 10.0699 91.8388 10.1479 91.9559 10.187 92.073 10.226 92.1511 10.265 92.2682 10.3041 92.3853 10.3431 92.5024 10.3431 92.5804 10.3431L92.6195 10.3431C92.7365 10.3431 92.8927 10.3431 93.0098 10.3041 93.1268 10.265 93.283 10.226 93.361 10.1479 93.4781 10.0699 93.5562 9.99182 93.6342 9.87472 93.7513 9.64054 93.7513 9.52345 93.7513 9.3283L93.7513 9.3283ZM96.8347 9.01605C96.7957 8.97702 96.7177 8.93799 96.6786 8.93799 96.6006 8.93799 96.5615 8.97702 96.5225 9.01605 96.4835 9.05508 96.4444 9.13314 96.4444 9.21121 96.4444 9.36733 96.3664 9.48442 96.2883 9.60151 96.1712 9.7186 96.0541 9.75763 95.898 9.75763L95.859 9.75763C95.7029 9.75763 95.5858 9.7186 95.4687 9.60151 95.3516 9.48442 95.3126 9.36733 95.3126 9.21121L95.3126 8.07932C95.3126 7.9232 95.3516 7.80611 95.4687 7.68901 95.5858 7.57192 95.7029 7.53289 95.859 7.53289L95.937 7.53289C96.0932 7.53289 96.2103 7.57192 96.3274 7.68901 96.4444 7.80611 96.4835 7.9232 96.4835 8.07932 96.4835 8.15738 96.5225 8.23544 96.5615 8.27447 96.6006 8.3135 96.6786 8.35253 96.7177 8.35253 96.7957 8.35253 96.8347 8.3135 96.8738 8.27447 96.9128 8.23544 96.9518 8.15738 96.9518 8.07932 96.9518 7.9232 96.9128 7.80611 96.8738 7.68901 96.8347 7.57192 96.7567 7.45483 96.6396 7.33774 96.5615 7.25968 96.4444 7.18162 96.2883 7.10356 96.1712 7.06453 96.0151 7.0255 95.898 7.0255L95.82 7.0255C95.6638 7.0255 95.5467 7.06453 95.4296 7.10356 95.3126 7.14259 95.1955 7.22065 95.0784 7.33774 95.0003 7.4158 94.9222 7.53289 94.8442 7.68901 94.8052 7.80611 94.7661 7.96223 94.7661 8.11835L94.7661 9.25024C94.7661 9.40636 94.8052 9.52345 94.8442 9.67957 94.8832 9.79666 94.9613 9.91375 95.0784 9.99182 95.1564 10.0699 95.2735 10.1479 95.4296 10.226 95.5467 10.265 95.7029 10.3041 95.82 10.3041L95.898 10.3041C96.0541 10.3041 96.1712 10.265 96.2883 10.226 96.4054 10.187 96.5225 10.1089 96.6396 9.99182 96.7177 9.91375 96.7957 9.79666 96.8738 9.67957 96.9128 9.56248 96.9518 9.40636 96.9518 9.28927 96.9128 9.13314 96.9128 9.05508 96.8347 9.01605M100.113 8.11835C100.113 7.96223 100.074 7.84514 100.035 7.72804 99.9962 7.61095 99.9182 7.49386 99.8011 7.37677 99.723 7.29871 99.6059 7.22065 99.4498 7.14259 99.3327 7.10356 99.1766 7.06453 99.0595 7.06453L99.0205 7.06453C98.9034 7.06453 98.7863 7.06453 98.7082 7.10356 98.5911 7.14259 98.5131 7.18162 98.474 7.25968L98.474 5.97167C98.474 5.89361 98.435 5.81555 98.396 5.77652 98.3569 5.73749 98.2789 5.69846 98.2398 5.69846 98.1618 5.69846 98.1227 5.73749 98.0837 5.77652 98.0447 5.81555 98.0057 5.89361 98.0057 5.97167L98.0057 10.0308C98.0057 10.1089 98.0447 10.187 98.0837 10.226 98.1227 10.265 98.2008 10.3041 98.2398 10.3041 98.3179 10.3041 98.3569 10.3041 98.396 10.226 98.435 10.187 98.474 10.1089 98.474 10.0308L98.474 8.07932C98.474 8.00126 98.474 7.9232 98.5131 7.84514 98.5521 7.76708 98.5911 7.72804 98.6301 7.68901 98.6692 7.64998 98.7472 7.61095 98.8253 7.57192 98.9034 7.53289 98.9814 7.53289 99.0595 7.53289 99.1376 7.53289 99.2156 7.53289 99.2546 7.57192 99.3327 7.61095 99.3717 7.61095 99.4498 7.68901 99.4888 7.72804 99.5669 7.80611 99.5669 7.84514 99.6059 7.9232 99.6059 8.00126 99.6059 8.07932L99.6059 9.99182C99.6059 10.0699 99.6449 10.1479 99.684 10.187 99.723 10.226 99.8011 10.265 99.8401 10.265 99.9182 10.265 99.9572 10.265 99.9962 10.187 100.035 10.1479 100.074 10.0699 100.074 9.99182L100.074 8.11835ZM103.626 9.87472C103.587 9.83569 103.548 9.79666 103.47 9.79666 103.353 9.75763 103.314 9.7186 103.314 9.56248L103.314 8.04029C103.314 7.88417 103.275 7.76708 103.236 7.64998 103.197 7.53289 103.119 7.4158 103.002 7.33774 102.924 7.25968 102.806 7.18162 102.689 7.10356 102.572 7.06453 102.416 7.0255 102.299 7.0255L102.26 7.0255C102.182 7.0255 102.065 7.0255 101.987 7.06453 101.909 7.06453 101.792 7.10356 101.714 7.14259 101.635 7.18162 101.557 7.25968 101.479 7.33774 101.401 7.4158 101.323 7.53289 101.284 7.64998 101.284 7.68901 101.245 7.72804 101.245 7.76708 101.245 7.84514 101.284 7.88417 101.323 7.9232 101.362 7.96223 101.44 8.00126 101.479 8.00126 101.518 8.00126 101.557 8.00126 101.596 7.96223 101.635 7.96223 101.675 7.9232 101.675 7.84514 101.753 7.72804 101.792 7.64998 101.87 7.61095 101.948 7.57192 102.065 7.53289 102.182 7.53289L102.221 7.53289C102.377 7.53289 102.494 7.57192 102.572 7.64998 102.689 7.72804 102.728 7.88417 102.728 8.04029 102.728 8.04029 102.728 8.07932 102.728 8.11835 102.728 8.15738 102.728 8.15738 102.728 8.15738 102.689 8.19641 102.65 8.23544 102.533 8.23544 102.455 8.27447 102.338 8.27447 102.221 8.3135 102.104 8.35253 101.987 8.35253 101.831 8.39156 101.714 8.43059 101.557 8.46963 101.479 8.54769 101.362 8.62575 101.284 8.70381 101.206 8.8209 101.128 8.93799 101.089 9.05508 101.089 9.25024L101.089 9.3283C101.089 9.48442 101.128 9.60151 101.167 9.7186 101.245 9.83569 101.323 9.95279 101.401 10.0308 101.518 10.1089 101.596 10.1479 101.753 10.187 101.87 10.226 101.987 10.265 102.143 10.265L102.221 10.265C102.494 10.265 102.728 10.187 102.924 10.0308 102.963 10.1089 103.041 10.1479 103.08 10.187 103.158 10.226 103.236 10.265 103.353 10.265 103.353 10.265 103.392 10.265 103.392 10.265 103.47 10.265 103.548 10.226 103.587 10.187 103.626 10.1479 103.665 10.0699 103.665 10.0308 103.665 9.99182 103.665 9.91375 103.626 9.87472M102.806 9.21121C102.806 9.36733 102.767 9.48442 102.65 9.60151 102.533 9.7186 102.416 9.75763 102.26 9.75763L102.182 9.75763C102.026 9.75763 101.87 9.7186 101.792 9.64054 101.675 9.56248 101.635 9.44539 101.635 9.28927L101.635 9.25024C101.635 9.13314 101.675 9.05508 101.753 8.97702 101.831 8.89896 101.909 8.85993 102.026 8.8209 102.143 8.78187 102.26 8.74284 102.416 8.74284 102.533 8.74284 102.689 8.70381 102.806 8.66478L102.806 9.21121ZM105.812 5.77652C105.773 5.73749 105.695 5.69846 105.617 5.69846 105.5 5.69846 105.382 5.73749 105.265 5.77652 105.148 5.81555 105.07 5.89361 104.992 5.97167 104.914 6.04973 104.875 6.12779 104.797 6.24488 104.758 6.36198 104.719 6.47907 104.719 6.59616L104.719 7.10356 104.563 7.10356C104.485 7.10356 104.407 7.14259 104.368 7.18162 104.329 7.22065 104.29 7.29871 104.29 7.33774 104.29 7.4158 104.329 7.45483 104.368 7.49386 104.407 7.53289 104.485 7.57192 104.563 7.57192L104.719 7.57192 104.719 10.0308C104.719 10.1089 104.758 10.187 104.797 10.226 104.836 10.265 104.914 10.3041 104.953 10.3041 105.031 10.3041 105.07 10.3041 105.109 10.226 105.148 10.187 105.187 10.1089 105.187 10.0308L105.187 7.57192 105.5 7.57192C105.578 7.57192 105.656 7.53289 105.695 7.49386 105.734 7.45483 105.773 7.37677 105.773 7.33774 105.773 7.25968 105.773 7.22065 105.695 7.18162 105.656 7.14259 105.578 7.10356 105.5 7.10356L105.187 7.10356 105.187 6.59616C105.187 6.47907 105.226 6.40101 105.265 6.32295 105.343 6.24488 105.421 6.20585 105.5 6.20585 105.578 6.20585 105.656 6.16682 105.695 6.12779 105.734 6.08876 105.773 6.0107 105.773 5.97167 105.773 5.93264 105.851 5.85458 105.812 5.77652M107.919 9.87472C107.88 9.83569 107.841 9.79666 107.763 9.79666 107.646 9.79666 107.568 9.75763 107.49 9.67957 107.412 9.60151 107.373 9.52345 107.373 9.40636L107.373 7.57192 107.724 7.57192C107.802 7.57192 107.88 7.53289 107.919 7.49386 107.958 7.45483 107.997 7.37677 107.997 7.33774 107.997 7.25968 107.958 7.22065 107.919 7.18162 107.88 7.14259 107.802 7.10356 107.724 7.10356L107.373 7.10356 107.373 5.97167C107.373 5.89361 107.334 5.81555 107.295 5.77652 107.256 5.73749 107.178 5.69846 107.139 5.69846 107.061 5.69846 107.022 5.73749 106.983 5.77652 106.944 5.81555 106.905 5.89361 106.905 5.97167L106.905 7.10356 106.67 7.10356C106.592 7.10356 106.514 7.14259 106.475 7.18162 106.436 7.22065 106.397 7.29871 106.397 7.33774 106.397 7.4158 106.436 7.45483 106.475 7.49386 106.514 7.53289 106.592 7.57192 106.67 7.57192L106.905 7.57192 106.905 9.40636C106.905 9.52345 106.944 9.64054 106.983 9.75763 107.022 9.87472 107.1 9.95279 107.178 10.0308 107.256 10.1089 107.334 10.187 107.451 10.226 107.568 10.265 107.685 10.3041 107.802 10.3041 107.88 10.3041 107.958 10.265 107.997 10.226 108.037 10.187 108.076 10.1089 108.076 10.0699 107.997 9.95279 107.958 9.91375 107.919 9.87472" fill="#D40F14" transform="matrix(1 0 0 1.01963 620 55.064)"/></g></svg>